<svg width="36" height="36" viewBox="0 0 36 36" fill="none" xmlns="http://www.w3.org/2000/svg">
<path d="M10.5 33C9.675 33 8.969 32.7065 8.382 32.1195C7.794 31.5315 7.5 30.825 7.5 30C7.5 29.175 7.794 28.4685 8.382 27.8805C8.969 27.2935 9.675 27 10.5 27C11.325 27 12.031 27.2935 12.618 27.8805C13.206 28.4685 13.5 29.175 13.5 30C13.5 30.825 13.206 31.5315 12.618 32.1195C12.031 32.7065 11.325 33 10.5 33ZM25.5 33C24.675 33 23.969 32.7065 23.382 32.1195C22.794 31.5315 22.5 30.825 22.5 30C22.5 29.175 22.794 28.4685 23.382 27.8805C23.969 27.2935 24.675 27 25.5 27C26.325 27 27.0315 27.2935 27.6195 27.8805C28.2065 28.4685 28.5 29.175 28.5 30C28.5 30.825 28.2065 31.5315 27.6195 32.1195C27.0315 32.7065 26.325 33 25.5 33ZM9.225 9L12.825 16.5H23.325L27.45 9H9.225ZM10.5 25.5C9.375 25.5 8.525 25.006 7.95 24.018C7.375 23.031 7.35 22.05 7.875 21.075L9.9 17.4L4.5 6H2.9625C2.5375 6 2.1875 5.856 1.9125 5.568C1.6375 5.281 1.5 4.925 1.5 4.5C1.5 4.075 1.644 3.7185 1.932 3.4305C2.219 3.1435 2.575 3 3 3H5.4375C5.7125 3 5.975 3.075 6.225 3.225C6.475 3.375 6.6625 3.5875 6.7875 3.8625L7.8 6H29.925C30.6 6 31.0625 6.25 31.3125 6.75C31.5625 7.25 31.55 7.775 31.275 8.325L25.95 17.925C25.675 18.425 25.3125 18.8125 24.8625 19.0875C24.4125 19.3625 23.9 19.5 23.325 19.5H12.15L10.5 22.5H27.0375C27.4625 22.5 27.8125 22.6435 28.0875 22.9305C28.3625 23.2185 28.5 23.575 28.5 24C28.5 24.425 28.356 24.781 28.068 25.068C27.781 25.356 27.425 25.5 27 25.5H10.5Z" fill="white"/>
</svg>
