<svg width="32" height="32" viewBox="0 0 32 32" fill="none" xmlns="http://www.w3.org/2000/svg">
<path d="M23.2595 6.45218H3.25056V4H23.2595V6.45218ZM17.0567 13.8087H4.55114L5.30147 10.1305H21.2086L21.7088 12.5826C22.6342 12.6317 23.5221 12.8156 24.3725 13.1466L23.2595 7.67827H3.25056L2 13.8087V16.2609H3.25056V23.6175H13.8803C13.4676 22.6366 13.255 21.5944 13.255 20.5522V21.1653H5.75168V16.2609H13.255V20.5522C13.255 18.5169 14.0554 16.4693 15.6311 14.9122C16.0813 14.4831 16.5565 14.1153 17.0567 13.8087ZM30 27.2957L28.2617 29L24.36 25.2359C23.4971 25.7631 22.4716 26.0696 21.3837 26.0696C18.2573 26.0696 15.7561 23.6175 15.7561 20.5522C15.7561 17.487 18.2573 15.0348 21.3837 15.0348C24.5101 15.0348 27.0112 17.487 27.0112 20.5522C27.0112 21.6312 26.6985 22.6488 26.1483 23.4949L30 27.2957ZM24.5101 20.5522C24.5101 19.7393 24.1807 18.9596 23.5944 18.3848C23.008 17.8099 22.2128 17.487 21.3837 17.487C20.5545 17.487 19.7593 17.8099 19.173 18.3848C18.5866 18.9596 18.2573 19.7393 18.2573 20.5522C18.2573 21.3652 18.5866 22.1448 19.173 22.7197C19.7593 23.2945 20.5545 23.6175 21.3837 23.6175C22.2128 23.6175 23.008 23.2945 23.5944 22.7197C24.1807 22.1448 24.5101 21.3652 24.5101 20.5522Z" fill="white"/>
</svg>
