<svg width="154" height="96" viewBox="0 0 154 96" fill="none" xmlns="http://www.w3.org/2000/svg">
<path d="M12.048 41.216C8.624 41.216 6.096 39.568 4.464 36.272C2.832 32.976 2.016 28.848 2.016 23.888C2.016 22.832 2.128 21.216 2.352 19.04C2.608 16.832 3.104 14.8 3.84 12.944C4.608 11.056 5.632 9.52 6.912 8.336C8.224 7.152 9.936 6.56 12.048 6.56C13.392 6.56 14.592 6.848 15.648 7.424C16.704 7.968 17.6 8.72 18.336 9.68C19.072 10.608 19.664 11.696 20.112 12.944C20.592 14.192 20.976 15.52 21.264 16.928C21.552 18.336 21.744 19.76 21.84 21.2C21.936 22.64 21.984 23.536 21.984 23.888C21.984 25.872 21.776 28.032 21.36 30.368C20.944 32.704 20.32 34.672 19.488 36.272C18.688 37.872 17.68 39.088 16.464 39.92C15.248 40.784 13.776 41.216 12.048 41.216ZM12 11.696C11.232 11.696 10.528 11.952 9.888 12.464C9.28 12.944 8.752 13.728 8.304 14.816C7.856 15.872 7.504 17.264 7.248 18.992C7.024 20.72 6.912 22.352 6.912 23.888C6.912 25.456 7.024 27.104 7.248 28.832C7.504 30.56 7.856 31.968 8.304 33.056C8.752 34.112 9.28 34.896 9.888 35.408C10.528 35.888 11.232 36.128 12 36.128C12.736 36.128 13.408 35.888 14.016 35.408C14.656 34.896 15.2 34.112 15.648 33.056C16.096 31.968 16.432 30.56 16.656 28.832C16.912 27.104 17.04 25.456 17.04 23.888C17.04 22.352 16.912 20.72 16.656 18.992C16.432 17.264 16.096 15.872 15.648 14.816C15.2 13.728 14.656 12.944 14.016 12.464C13.408 11.952 12.736 11.696 12 11.696ZM42.144 40.4C41.888 40.4 41.696 40.352 41.568 40.256C41.44 40.16 41.28 39.952 41.088 39.632L34.464 19.28L33.504 15.536V19.04V39.632C33.504 39.952 33.456 40.16 33.36 40.256C33.264 40.352 33.056 40.4 32.736 40.4H29.472C29.216 40.4 29.024 40.352 28.896 40.256C28.768 40.16 28.704 29.408 28.704 8C28.704 7.616 28.768 7.376 28.896 7.28C29.024 7.152 29.264 7.088 29.616 7.088H33.792C34.048 7.088 34.24 7.136 34.368 7.232C34.496 7.296 34.656 7.504 34.848 7.856L41.472 28.208L42.432 31.952V28.448V7.856C42.432 7.536 42.48 7.328 42.576 7.232C42.672 7.136 42.88 7.088 43.2 7.088H46.464C46.784 7.088 46.976 7.136 47.04 7.232C47.136 7.328 47.184 7.536 47.184 7.856V39.488C47.184 39.872 47.12 40.112 46.992 40.208C46.896 40.336 46.672 40.4 46.32 40.4H42.144ZM56.112 40.4C55.952 40.4 55.808 40.336 55.68 40.208C55.584 40.112 55.536 39.984 55.536 39.824V7.664C55.536 7.504 55.584 7.376 55.68 7.28C55.808 7.152 55.952 7.088 56.112 7.088H60.384C60.544 7.088 60.672 7.152 60.768 7.28C60.896 7.376 60.96 7.504 60.96 7.664V35.36H72.48C72.864 35.36 73.056 35.568 73.056 35.984V39.824C73.056 39.984 72.992 40.112 72.864 40.208C72.768 40.336 72.64 40.4 72.48 40.4H56.112ZM81.984 40.4C81.824 40.4 81.68 40.336 81.552 40.208C81.456 40.112 81.408 39.968 81.408 39.776V35.936C81.408 35.776 81.456 35.648 81.552 35.552C81.68 35.424 81.824 35.36 81.984 35.36H87.024V12.128H82.704C82.544 12.128 82.4 12.08 82.272 11.984C82.176 11.856 82.128 11.696 82.128 11.504V7.664C82.128 7.504 82.176 7.376 82.272 7.28C82.4 7.152 82.544 7.088 82.704 7.088H96.768C96.928 7.088 97.056 7.152 97.152 7.28C97.28 7.376 97.344 7.504 97.344 7.664V11.504C97.344 11.92 97.152 12.128 96.768 12.128H92.448V35.36H97.488C97.648 35.36 97.776 35.424 97.872 35.552C98 35.648 98.064 35.776 98.064 35.936V39.776C98.064 40.192 97.872 40.4 97.488 40.4H81.984ZM119.904 40.4C119.648 40.4 119.456 40.352 119.328 40.256C119.2 40.16 119.04 39.952 118.848 39.632L112.224 19.28L111.264 15.536V19.04V39.632C111.264 39.952 111.216 40.16 111.12 40.256C111.024 40.352 110.816 40.4 110.496 40.4H107.232C106.976 40.4 106.784 40.352 106.656 40.256C106.528 40.16 106.464 29.408 106.464 8C106.464 7.616 106.528 7.376 106.656 7.28C106.784 7.152 107.024 7.088 107.376 7.088H111.552C111.808 7.088 112 7.136 112.128 7.232C112.256 7.296 112.416 7.504 112.608 7.856L119.232 28.208L120.192 31.952V28.448V7.856C120.192 7.536 120.24 7.328 120.336 7.232C120.432 7.136 120.64 7.088 120.96 7.088H124.224C124.544 7.088 124.736 7.136 124.8 7.232C124.896 7.328 124.944 7.536 124.944 7.856V39.488C124.944 39.872 124.88 40.112 124.752 40.208C124.656 40.336 124.432 40.4 124.08 40.4H119.904ZM134.208 40.4C133.568 40.4 133.184 40.336 133.056 40.208C132.928 40.112 132.864 39.712 132.864 39.008V8.384C132.864 7.744 132.912 7.376 133.008 7.28C133.136 7.152 133.504 7.088 134.112 7.088H149.616C149.968 7.088 150.176 7.152 150.24 7.28C150.304 7.376 150.336 7.568 150.336 7.856V11.312C150.336 11.632 150.288 11.856 150.192 11.984C150.096 12.08 149.904 12.128 149.616 12.128H138.144V20.816H148.992C149.472 20.816 149.712 21.072 149.712 21.584V25.04C149.712 25.584 149.472 25.856 148.992 25.856H138.144V35.36H150.192C150.64 35.36 150.864 35.632 150.864 36.176V39.632C150.864 40.144 150.64 40.4 150.192 40.4H134.208ZM3.312 73.568C3.152 73.568 3.008 73.52 2.88 73.424C2.752 73.296 2.688 73.152 2.688 72.992V69.152C2.688 68.992 2.752 68.864 2.88 68.768C3.008 68.64 3.152 68.576 3.312 68.576H20.688C20.88 68.576 21.024 68.64 21.12 68.768C21.248 68.864 21.312 68.992 21.312 69.152V72.992C21.312 73.152 21.248 73.296 21.12 73.424C21.024 73.52 20.88 73.568 20.688 73.568H3.312Z" fill="black"/>
<path d="M4.464 36.272L3.56784 36.7157L3.56784 36.7157L4.464 36.272ZM2.352 19.04L1.35857 18.9248L1.35726 18.9376L2.352 19.04ZM3.84 12.944L2.91367 12.5672L2.91042 12.5754L3.84 12.944ZM6.912 8.336L6.24199 7.59355L6.23296 7.6019L6.912 8.336ZM15.648 7.424L15.1691 8.30189L15.1795 8.30756L15.19 8.31297L15.648 7.424ZM18.336 9.68L17.5424 10.2884L17.5474 10.295L17.5525 10.3014L18.336 9.68ZM20.112 12.944L19.1708 13.2819L19.1746 13.2925L19.1787 13.303L20.112 12.944ZM21.84 21.2L20.8422 21.2665L20.8422 21.2665L21.84 21.2ZM21.36 30.368L20.3755 30.1927L21.36 30.368ZM19.488 36.272L18.6008 35.8106L18.5971 35.8177L18.5936 35.8248L19.488 36.272ZM16.464 39.92L15.8993 39.0947L15.892 39.0997L15.8848 39.1048L16.464 39.92ZM9.888 12.464L10.5077 13.2489L10.5127 13.2449L9.888 12.464ZM8.304 14.816L9.22463 15.2066L9.22868 15.1967L8.304 14.816ZM7.248 18.992L6.2588 18.8454L6.25747 18.8544L6.2563 18.8634L7.248 18.992ZM7.248 28.832L6.2563 28.9606L6.25747 28.9696L6.2588 28.9785L7.248 28.832ZM8.304 33.056L7.37927 33.4368L7.38342 33.4465L8.304 33.056ZM9.888 35.408L9.24387 36.1729L9.26544 36.1911L9.288 36.208L9.888 35.408ZM14.016 35.408L14.6357 36.1929L14.6407 36.1889L14.016 35.408ZM15.648 33.056L16.5686 33.4466L16.5727 33.4367L15.648 33.056ZM16.656 28.832L15.6668 28.6855L15.6655 28.6944L15.6643 28.7034L16.656 28.832ZM16.656 18.992L15.6643 19.1206L15.6655 19.1296L15.6668 19.1385L16.656 18.992ZM15.648 14.816L14.7233 15.1968L14.7274 15.2065L15.648 14.816ZM14.016 12.464L13.3719 13.2289L13.3934 13.2471L13.416 13.264L14.016 12.464ZM12.048 40.216C10.503 40.216 9.21051 39.8466 8.13011 39.1423C7.04556 38.4353 6.11413 37.351 5.36016 35.8283L3.56784 36.7157C4.44587 38.489 5.59444 39.8767 7.03789 40.8177C8.48549 41.7614 10.169 42.216 12.048 42.216V40.216ZM5.36016 35.8283C3.81599 32.7097 3.016 28.7451 3.016 23.888H1.016C1.016 28.9509 1.84801 33.2423 3.56784 36.7157L5.36016 35.8283ZM3.016 23.888C3.016 22.8859 3.12337 21.3123 3.34674 19.1424L1.35726 18.9376C1.13263 21.1197 1.016 22.7781 1.016 23.888H3.016ZM3.34535 19.1552C3.59239 17.0244 4.06924 15.0787 4.76958 13.3126L2.91042 12.5754C2.13876 14.5213 1.62361 16.6396 1.35865 18.9248L3.34535 19.1552ZM4.7663 13.3208C5.48833 11.5458 6.43536 10.1391 7.59104 9.0701L6.23296 7.6019C4.82864 8.90089 3.72767 10.5662 2.9137 12.5672L4.7663 13.3208ZM7.58197 9.07839C8.67561 8.09144 10.1326 7.56 12.048 7.56V5.56C9.73945 5.56 7.77239 6.21255 6.24204 7.59361L7.58197 9.07839ZM12.048 7.56C13.2447 7.56 14.2766 7.81507 15.1691 8.30189L16.1269 6.5461C14.9074 5.88093 13.5393 5.56 12.048 5.56V7.56ZM15.19 8.31297C16.1124 8.78811 16.8945 9.44335 17.5424 10.2884L19.1296 9.07157C18.3055 7.99665 17.2956 7.14789 16.106 6.53502L15.19 8.31297ZM17.5525 10.3014C18.2133 11.1346 18.7552 12.1242 19.1708 13.2819L21.0532 12.6061C20.5728 11.2678 19.9307 10.0814 19.1195 9.0586L17.5525 10.3014ZM19.1787 13.303C19.6374 14.4958 20.0065 15.7705 20.2843 17.1284L22.2437 16.7276C21.9455 15.2695 21.5466 13.8882 21.0453 12.585L19.1787 13.303ZM20.2843 17.1284C20.5632 18.492 20.7492 19.8713 20.8422 21.2665L22.8378 21.1335C22.7388 19.6487 22.5408 18.18 22.2437 16.7276L20.2843 17.1284ZM20.8422 21.2665C20.9391 22.7195 20.984 23.577 20.984 23.888H22.984C22.984 23.495 22.9329 22.5605 22.8378 21.1335L20.8422 21.2665ZM20.984 23.888C20.984 25.8031 20.7831 27.9037 20.3755 30.1927L22.3445 30.5433C22.7689 28.1603 22.984 25.9409 22.984 23.888H20.984ZM20.3755 30.1927C19.972 32.4585 19.374 34.3237 18.6008 35.8106L20.3752 36.7334C21.266 35.0203 21.916 32.9495 22.3445 30.5433L20.3755 30.1927ZM18.5936 35.8248C17.8534 37.3051 16.948 38.3772 15.8993 39.0947L17.0287 40.7453C18.412 39.7988 19.5226 38.4389 20.3824 36.7192L18.5936 35.8248ZM15.8848 39.1048C14.8637 39.8303 13.6024 40.216 12.048 40.216V42.216C13.9496 42.216 15.6323 41.7377 17.0432 40.7352L15.8848 39.1048ZM12 10.696C10.9891 10.696 10.0678 11.0395 9.2633 11.6831L10.5127 13.2449C10.9882 12.8645 11.4749 12.696 12 12.696V10.696ZM9.26836 11.6791C8.47345 12.3067 7.86149 13.2643 7.37932 14.4352L9.22868 15.1967C9.64251 14.1917 10.0865 13.5813 10.5076 13.2489L9.26836 11.6791ZM7.38342 14.4254C6.88983 15.5889 6.52147 17.0724 6.2588 18.8454L8.2372 19.1385C8.48653 17.4556 8.82217 16.1551 9.22458 15.2065L7.38342 14.4254ZM6.2563 18.8634C6.02749 20.6285 5.912 22.3038 5.912 23.888H7.912C7.912 22.4002 8.02051 20.8115 8.2397 19.1206L6.2563 18.8634ZM5.912 23.888C5.912 25.5034 6.02737 27.1946 6.2563 28.9606L8.2397 28.7034C8.02063 27.0134 7.912 25.4086 7.912 23.888H5.912ZM6.2588 28.9785C6.52155 30.7521 6.88936 32.2468 7.37932 33.4367L9.22868 32.6752C8.82264 31.6892 8.48645 30.3679 8.2372 28.6855L6.2588 28.9785ZM7.38342 33.4465C7.86753 34.5877 8.47421 35.5248 9.24387 36.1729L10.5321 34.6431C10.0858 34.2672 9.63647 33.6363 9.22458 32.6654L7.38342 33.4465ZM9.288 36.208C10.0934 36.812 11.0062 37.128 12 37.128V35.128C11.4578 35.128 10.9626 34.964 10.488 34.608L9.288 36.208ZM12 37.128C12.9732 37.128 13.8611 36.8044 14.6356 36.1929L13.3964 34.6231C12.9549 34.9716 12.4988 35.128 12 35.128V37.128ZM14.6407 36.1889C15.4515 35.5402 16.0803 34.5975 16.5686 33.4465L14.7274 32.6654C14.3197 33.6265 13.8605 34.2518 13.3913 34.6271L14.6407 36.1889ZM16.5727 33.4367C17.0657 32.2393 17.4173 30.7379 17.6477 28.9606L15.6643 28.7034C15.4467 30.3821 15.1263 31.6967 14.7233 32.6752L16.5727 33.4367ZM17.6452 28.9785C17.9076 27.2074 18.04 25.5102 18.04 23.888H16.04C16.04 25.4018 15.9164 27.0006 15.6668 28.6855L17.6452 28.9785ZM18.04 23.888C18.04 22.2968 17.9074 20.6155 17.6452 18.8454L15.6668 19.1385C15.9166 20.8245 16.04 22.4072 16.04 23.888H18.04ZM17.6477 18.8634C17.4174 17.0868 17.0654 15.5965 16.5686 14.4254L14.7274 15.2065C15.1266 16.1475 15.4466 17.4412 15.6643 19.1206L17.6477 18.8634ZM16.5727 14.4352C16.0863 13.2541 15.4524 12.2913 14.616 11.664L13.416 13.264C13.8596 13.5967 14.3137 14.2019 14.7233 15.1967L16.5727 14.4352ZM14.6601 11.6991C13.8874 11.0483 12.9912 10.696 12 10.696V12.696C12.4808 12.696 12.9286 12.8557 13.3719 13.2289L14.6601 11.6991ZM41.568 40.256L40.968 41.056L40.968 41.056L41.568 40.256ZM41.088 39.632L40.1371 39.9415L40.1722 40.0493L40.2305 40.1465L41.088 39.632ZM34.464 19.28L33.4953 19.5284L33.5032 19.5592L33.5131 19.5895L34.464 19.28ZM33.504 15.536L34.4727 15.2876L32.504 15.536H33.504ZM33.36 40.256L32.6529 39.5489L32.6529 39.5489L33.36 40.256ZM28.896 40.256L29.496 39.456L29.496 39.456L28.896 40.256ZM28.896 7.28L29.496 8.08L29.5529 8.03736L29.6031 7.9871L28.896 7.28ZM34.368 7.232L33.768 8.032L33.8401 8.0861L33.9208 8.12643L34.368 7.232ZM34.848 7.856L35.7989 7.54651L35.7702 7.45845L35.7259 7.37715L34.848 7.856ZM41.472 28.208L42.4407 27.9596L42.4328 27.9288L42.4229 27.8985L41.472 28.208ZM42.432 31.952L41.4633 32.2004L43.432 31.952H42.432ZM42.576 7.232L41.8689 6.52489L41.8689 6.5249L42.576 7.232ZM47.04 7.232L46.2079 7.7867L46.2629 7.86908L46.3329 7.9391L47.04 7.232ZM46.992 40.208L46.392 39.408L46.2777 39.4937L46.192 39.608L46.992 40.208ZM42.144 39.4C42.1109 39.4 42.0868 39.3984 42.0705 39.3967C42.0542 39.3949 42.0482 39.3933 42.0505 39.3939C42.0541 39.3948 42.1033 39.4075 42.168 39.456L40.968 41.056C41.3454 41.339 41.7918 41.4 42.144 41.4V39.4ZM42.168 39.456C42.2079 39.4859 42.1998 39.49 42.1446 39.4183C42.0955 39.3545 42.0292 39.2571 41.9455 39.1175L40.2305 40.1465C40.4236 40.4683 40.6686 40.8314 40.968 41.056L42.168 39.456ZM42.0389 39.3225L35.4149 18.9705L33.5131 19.5895L40.1371 39.9415L42.0389 39.3225ZM35.4327 19.0316L34.4727 15.2876L32.5353 15.7844L33.4953 19.5284L35.4327 19.0316ZM32.504 15.536V19.04H34.504V15.536H32.504ZM32.504 19.04V39.632H34.504V19.04H32.504ZM32.504 39.632C32.504 39.6877 32.5019 39.73 32.4991 39.7605C32.4963 39.7916 32.4933 39.8044 32.4936 39.8031C32.4937 39.8028 32.4995 39.7766 32.5193 39.7349C32.5391 39.6931 32.5791 39.6227 32.6529 39.5489L34.0671 40.9631C34.3032 40.7271 34.3983 40.4438 34.4424 40.2529C34.4896 40.0484 34.504 39.8341 34.504 39.632H32.504ZM32.6529 39.5489C32.7267 39.4751 32.7971 39.4351 32.8389 39.4153C32.8806 39.3955 32.9068 39.3897 32.9071 39.3896C32.9084 39.3893 32.8956 39.3923 32.8645 39.3951C32.834 39.3979 32.7917 39.4 32.736 39.4V41.4C32.9381 41.4 33.1524 41.3856 33.3569 41.3384C33.5478 41.2943 33.8311 41.1992 34.0671 40.9631L32.6529 39.5489ZM32.736 39.4H29.472V41.4H32.736V39.4ZM29.472 39.4C29.4389 39.4 29.4148 39.3984 29.3985 39.3967C29.3822 39.3949 29.3762 39.3933 29.3785 39.3939C29.3821 39.3948 29.4313 39.4075 29.496 39.456L28.296 41.056C28.6734 41.339 29.1198 41.4 29.472 41.4V39.4ZM29.496 39.456C29.689 39.6007 29.773 39.7745 29.7932 39.8163C29.8252 39.8825 29.8423 39.9371 29.8495 39.9619C29.8646 40.0134 29.8705 40.0509 29.8712 40.0552C29.8736 40.0699 29.8723 40.066 29.8692 40.0294C29.8636 39.9622 29.857 39.8486 29.8502 39.68C29.8367 39.3467 29.8238 38.8444 29.8118 38.1683C29.788 36.8184 29.768 34.8011 29.752 32.114C29.72 26.7411 29.704 18.7035 29.704 8H27.704C27.704 18.7045 27.72 26.7469 27.752 32.126C27.768 34.8149 27.788 36.8416 27.8122 38.2037C27.8242 38.8836 27.8373 39.4043 27.8518 39.761C27.859 39.9374 27.8669 40.0856 27.8763 40.1969C27.8807 40.2495 27.887 40.3141 27.8972 40.3764C27.9017 40.4044 27.9115 40.4606 27.9306 40.5255C27.9398 40.5569 27.9588 40.617 27.9928 40.6873C28.015 40.7332 28.101 40.9098 28.296 41.056L29.496 39.456ZM29.704 8C29.704 7.93084 29.7069 7.87862 29.7108 7.84103C29.7147 7.80261 29.7188 7.7874 29.7182 7.78966C29.7179 7.79077 29.7092 7.82453 29.6802 7.87514C29.6504 7.9274 29.5936 8.00682 29.496 8.08L28.296 6.48C27.9773 6.71902 27.8455 7.0505 27.7858 7.27434C27.7227 7.51098 27.704 7.76283 27.704 8H29.704ZM29.6031 7.9871C29.5535 8.03666 29.5068 8.0663 29.4756 8.08258C29.4451 8.09845 29.4273 8.10287 29.4297 8.10223C29.4319 8.10165 29.4476 8.09776 29.4805 8.0942C29.5131 8.09068 29.5576 8.088 29.616 8.088V6.088C29.2192 6.088 28.6174 6.14441 28.1889 6.57289L29.6031 7.9871ZM29.616 8.088H33.792V6.088H29.616V8.088ZM33.792 8.088C33.8251 8.088 33.8492 8.08957 33.8655 8.09131C33.8818 8.09305 33.8878 8.09473 33.8855 8.09414C33.8819 8.09324 33.8327 8.08049 33.768 8.032L34.968 6.432C34.5906 6.14895 34.1442 6.088 33.792 6.088V8.088ZM33.9208 8.12643C33.8389 8.08546 33.7934 8.04346 33.7834 8.03401C33.771 8.0223 33.7739 8.02298 33.7914 8.04571C33.8276 8.09285 33.8875 8.18341 33.9701 8.33485L35.7259 7.37715C35.6165 7.17658 35.5004 6.98715 35.3766 6.82629C35.269 6.68634 35.0847 6.47234 34.8152 6.33757L33.9208 8.12643ZM33.8971 8.16549L40.5211 28.5175L42.4229 27.8985L35.7989 7.54651L33.8971 8.16549ZM40.5033 28.4564L41.4633 32.2004L43.4007 31.7036L42.4407 27.9596L40.5033 28.4564ZM43.432 31.952V28.448H41.432V31.952H43.432ZM43.432 28.448V7.856H41.432V28.448H43.432ZM43.432 7.856C43.432 7.80028 43.4341 7.75804 43.4369 7.72753C43.4397 7.69643 43.4427 7.68356 43.4424 7.68486C43.4423 7.68518 43.4365 7.71145 43.4167 7.75308C43.3969 7.79487 43.3569 7.86532 43.2831 7.9391L41.8689 6.5249C41.6328 6.76094 41.5377 7.04415 41.4936 7.23514C41.4464 7.43965 41.432 7.65388 41.432 7.856H43.432ZM43.2831 7.93911C43.2093 8.01289 43.1389 8.05294 43.0971 8.07274C43.0555 8.09246 43.0292 8.09832 43.0289 8.09839C43.0276 8.09869 43.0404 8.09572 43.0715 8.09289C43.102 8.09012 43.1443 8.088 43.2 8.088V6.088C42.9979 6.088 42.7836 6.10241 42.5791 6.14961C42.3882 6.19368 42.1049 6.28885 41.8689 6.52489L43.2831 7.93911ZM43.2 8.088H46.464V6.088H43.2V8.088ZM46.464 8.088C46.5858 8.088 46.6221 8.09831 46.6055 8.09414C46.5948 8.09147 46.5452 8.0785 46.4777 8.04057C46.4089 8.00183 46.2999 7.92461 46.2079 7.7867L47.8721 6.6773C47.6323 6.31763 47.2689 6.19845 47.0905 6.15386C46.8819 6.10169 46.6622 6.088 46.464 6.088V8.088ZM46.3329 7.9391C46.2591 7.86532 46.2191 7.79487 46.1993 7.75308C46.1795 7.71145 46.1737 7.68518 46.1736 7.68486C46.1733 7.68356 46.1763 7.69643 46.1791 7.72753C46.1819 7.75804 46.184 7.80028 46.184 7.856H48.184C48.184 7.65388 48.1696 7.43965 48.1224 7.23514C48.0783 7.04415 47.9832 6.76094 47.7471 6.5249L46.3329 7.9391ZM46.184 7.856V39.488H48.184V7.856H46.184ZM46.184 39.488C46.184 39.5572 46.1811 39.6094 46.1772 39.647C46.1733 39.6854 46.1692 39.7006 46.1698 39.6983C46.1701 39.6972 46.1788 39.6635 46.2078 39.6129C46.2376 39.5606 46.2944 39.4812 46.392 39.408L47.592 41.008C47.9107 40.769 48.0425 40.4375 48.1022 40.2137C48.1653 39.977 48.184 39.7252 48.184 39.488H46.184ZM46.192 39.608C46.3227 39.4338 46.4716 39.3921 46.4773 39.3905C46.4862 39.3879 46.4788 39.3909 46.4496 39.3941C46.421 39.3973 46.3786 39.4 46.32 39.4V41.4C46.5467 41.4 46.7923 41.3805 47.0267 41.3135C47.2564 41.2479 47.5653 41.1102 47.792 40.808L46.192 39.608ZM46.32 39.4H42.144V41.4H46.32V39.4ZM55.68 40.208L54.9729 40.9151L54.9729 40.9151L55.68 40.208ZM55.68 7.28L54.9729 6.57289L54.9729 6.57289L55.68 7.28ZM60.768 7.28L59.968 7.88L60.0537 7.99428L60.168 8.08L60.768 7.28ZM60.96 35.36H59.96V36.36H60.96V35.36ZM72.864 40.208L72.264 39.408L72.1497 39.4937L72.064 39.608L72.864 40.208ZM56.112 39.4C56.1697 39.4 56.2323 39.4125 56.2901 39.4382C56.3457 39.4629 56.3771 39.4909 56.3871 39.5009L54.9729 40.9151C55.2616 41.2038 55.6511 41.4 56.112 41.4V39.4ZM56.3871 39.5009C56.4408 39.5546 56.4826 39.6202 56.5083 39.6889C56.5329 39.7545 56.536 39.8041 56.536 39.824H54.536C54.536 40.1983 54.6562 40.5984 54.9729 40.9151L56.3871 39.5009ZM56.536 39.824V7.664H54.536V39.824H56.536ZM56.536 7.664C56.536 7.68386 56.5329 7.73349 56.5083 7.79912C56.4826 7.86783 56.4408 7.93344 56.3871 7.9871L54.9729 6.57289C54.6562 6.88963 54.536 7.28974 54.536 7.664H56.536ZM56.3871 7.9871C56.3771 7.99714 56.3457 8.02513 56.2901 8.04981C56.2323 8.07553 56.1697 8.088 56.112 8.088V6.088C55.6511 6.088 55.2616 6.2842 54.9729 6.57289L56.3871 7.9871ZM56.112 8.088H60.384V6.088H56.112V8.088ZM60.384 8.088C60.3273 8.088 60.2433 8.07569 60.1528 8.03042C60.0623 7.98516 60.002 7.92537 59.968 7.88L61.568 6.68C61.2831 6.30019 60.8588 6.088 60.384 6.088V8.088ZM60.168 8.08C60.1226 8.04596 60.0628 7.98574 60.0176 7.89521C59.9723 7.80469 59.96 7.72072 59.96 7.664H61.96C61.96 7.18924 61.7478 6.76485 61.368 6.48L60.168 8.08ZM59.96 7.664V35.36H61.96V7.664H59.96ZM60.96 36.36H72.48V34.36H60.96V36.36ZM72.48 36.36C72.4964 36.36 72.3308 36.3607 72.1772 36.1943C72.0375 36.043 72.056 35.9112 72.056 35.984H74.056C74.056 35.6408 73.9785 35.197 73.6468 34.8377C73.3012 34.4633 72.8476 34.36 72.48 34.36V36.36ZM72.056 35.984V39.824H74.056V35.984H72.056ZM72.056 39.824C72.056 39.7673 72.0683 39.6833 72.1136 39.5928C72.1588 39.5023 72.2186 39.442 72.264 39.408L73.464 41.008C73.8438 40.7231 74.056 40.2988 74.056 39.824H72.056ZM72.064 39.608C72.098 39.5626 72.1583 39.5028 72.2488 39.4576C72.3393 39.4123 72.4233 39.4 72.48 39.4V41.4C72.9548 41.4 73.3791 41.1878 73.664 40.808L72.064 39.608ZM72.48 39.4H56.112V41.4H72.48V39.4ZM81.552 40.208L80.8449 40.9151L80.8449 40.9151L81.552 40.208ZM81.552 35.552L80.8449 34.8449L80.8449 34.8449L81.552 35.552ZM87.024 35.36V36.36H88.024V35.36H87.024ZM87.024 12.128H88.024V11.128H87.024V12.128ZM82.272 11.984L81.472 12.584L81.5577 12.6983L81.672 12.784L82.272 11.984ZM82.272 7.28L81.5649 6.57289L81.5649 6.57289L82.272 7.28ZM97.152 7.28L96.352 7.88L96.4377 7.99428L96.552 8.08L97.152 7.28ZM92.448 12.128V11.128H91.448V12.128H92.448ZM92.448 35.36H91.448V36.36H92.448V35.36ZM97.872 35.552L97.072 36.152L97.1577 36.2663L97.272 36.352L97.872 35.552ZM81.984 39.4C82.0417 39.4 82.1043 39.4125 82.1621 39.4382C82.2177 39.4629 82.2491 39.4909 82.2591 39.5009L80.8449 40.9151C81.1336 41.2038 81.5231 41.4 81.984 41.4V39.4ZM82.2591 39.5009C82.4168 39.6586 82.408 39.8139 82.408 39.776H80.408C80.408 40.1221 80.4952 40.5654 80.8449 40.9151L82.2591 39.5009ZM82.408 39.776V35.936H80.408V39.776H82.408ZM82.408 35.936C82.408 35.9559 82.4049 36.0055 82.3803 36.0711C82.3546 36.1398 82.3128 36.2054 82.2591 36.2591L80.8449 34.8449C80.5282 35.1616 80.408 35.5617 80.408 35.936H82.408ZM82.2591 36.2591C82.2491 36.2691 82.2177 36.2971 82.1621 36.3218C82.1043 36.3475 82.0417 36.36 81.984 36.36V34.36C81.5231 34.36 81.1336 34.5562 80.8449 34.8449L82.2591 36.2591ZM81.984 36.36H87.024V34.36H81.984V36.36ZM88.024 35.36V12.128H86.024V35.36H88.024ZM87.024 11.128H82.704V13.128H87.024V11.128ZM82.704 11.128C82.7256 11.128 82.7569 11.1315 82.7922 11.1433C82.8276 11.1551 82.8547 11.171 82.872 11.184L81.672 12.784C81.9731 13.0098 82.3276 13.128 82.704 13.128V11.128ZM83.072 11.384C83.0977 11.4182 83.1135 11.453 83.1218 11.4807C83.1296 11.5066 83.128 11.5169 83.128 11.504H81.128C81.128 11.8679 81.2218 12.2504 81.472 12.584L83.072 11.384ZM83.128 11.504V7.664H81.128V11.504H83.128ZM83.128 7.664C83.128 7.68386 83.1249 7.73349 83.1003 7.79912C83.0746 7.86783 83.0328 7.93344 82.9791 7.9871L81.5649 6.57289C81.2482 6.88963 81.128 7.28974 81.128 7.664H83.128ZM82.9791 7.9871C82.9691 7.99714 82.9377 8.02513 82.8821 8.04981C82.8243 8.07553 82.7617 8.088 82.704 8.088V6.088C82.2431 6.088 81.8536 6.2842 81.5649 6.57289L82.9791 7.9871ZM82.704 8.088H96.768V6.088H82.704V8.088ZM96.768 8.088C96.7113 8.088 96.6273 8.07569 96.5368 8.03042C96.4463 7.98516 96.386 7.92537 96.352 7.88L97.952 6.68C97.6672 6.30019 97.2428 6.088 96.768 6.088V8.088ZM96.552 8.08C96.5066 8.04596 96.4468 7.98574 96.4016 7.89521C96.3563 7.80469 96.344 7.72072 96.344 7.664H98.344C98.344 7.18924 98.1318 6.76485 97.752 6.48L96.552 8.08ZM96.344 7.664V11.504H98.344V7.664H96.344ZM96.344 11.504C96.344 11.5768 96.3255 11.445 96.4652 11.2937C96.6188 11.1273 96.7844 11.128 96.768 11.128V13.128C97.1356 13.128 97.5892 13.0247 97.9348 12.6503C98.2665 12.291 98.344 11.8472 98.344 11.504H96.344ZM96.768 11.128H92.448V13.128H96.768V11.128ZM91.448 12.128V35.36H93.448V12.128H91.448ZM92.448 36.36H97.488V34.36H92.448V36.36ZM97.488 36.36C97.4313 36.36 97.3473 36.3477 97.2568 36.3024C97.1663 36.2572 97.106 36.1974 97.072 36.152L98.672 34.952C98.3871 34.5722 97.9628 34.36 97.488 34.36V36.36ZM97.272 36.352C97.2266 36.318 97.1668 36.2577 97.1216 36.1672C97.0763 36.0767 97.064 35.9927 97.064 35.936H99.064C99.064 35.4612 98.8518 35.0369 98.472 34.752L97.272 36.352ZM97.064 35.936V39.776H99.064V35.936H97.064ZM97.064 39.776C97.064 39.8488 97.0455 39.717 97.1852 39.5657C97.3388 39.3993 97.5044 39.4 97.488 39.4V41.4C97.8556 41.4 98.3092 41.2967 98.6548 40.9223C98.9865 40.563 99.064 40.1192 99.064 39.776H97.064ZM97.488 39.4H81.984V41.4H97.488V39.4ZM119.328 40.256L118.728 41.056L118.728 41.056L119.328 40.256ZM118.848 39.632L117.897 39.9415L117.932 40.0493L117.991 40.1465L118.848 39.632ZM112.224 19.28L111.255 19.5284L111.263 19.5592L111.273 19.5895L112.224 19.28ZM111.264 15.536L112.233 15.2876L110.264 15.536H111.264ZM111.12 40.256L110.413 39.5489L110.413 39.5489L111.12 40.256ZM106.656 40.256L107.256 39.456L107.256 39.456L106.656 40.256ZM106.656 7.28L107.256 8.08L107.313 8.03736L107.363 7.9871L106.656 7.28ZM112.128 7.232L111.528 8.032L111.6 8.0861L111.681 8.12643L112.128 7.232ZM112.608 7.856L113.559 7.54651L113.53 7.45845L113.486 7.37715L112.608 7.856ZM119.232 28.208L120.201 27.9596L120.193 27.9288L120.183 27.8985L119.232 28.208ZM120.192 31.952L119.223 32.2004L121.192 31.952H120.192ZM120.336 7.232L119.629 6.52489L119.629 6.5249L120.336 7.232ZM124.8 7.232L123.968 7.7867L124.023 7.86908L124.093 7.9391L124.8 7.232ZM124.752 40.208L124.152 39.408L124.038 39.4937L123.952 39.608L124.752 40.208ZM119.904 39.4C119.871 39.4 119.847 39.3984 119.831 39.3967C119.814 39.3949 119.808 39.3933 119.811 39.3939C119.814 39.3948 119.863 39.4075 119.928 39.456L118.728 41.056C119.105 41.339 119.552 41.4 119.904 41.4V39.4ZM119.928 39.456C119.968 39.4859 119.96 39.49 119.905 39.4183C119.856 39.3545 119.789 39.2571 119.705 39.1175L117.991 40.1465C118.184 40.4683 118.429 40.8314 118.728 41.056L119.928 39.456ZM119.799 39.3225L113.175 18.9705L111.273 19.5895L117.897 39.9415L119.799 39.3225ZM113.193 19.0316L112.233 15.2876L110.295 15.7844L111.255 19.5284L113.193 19.0316ZM110.264 15.536V19.04H112.264V15.536H110.264ZM110.264 19.04V39.632H112.264V19.04H110.264ZM110.264 39.632C110.264 39.6877 110.262 39.73 110.259 39.7605C110.256 39.7916 110.253 39.8044 110.254 39.8031C110.254 39.8028 110.26 39.7766 110.279 39.7349C110.299 39.6931 110.339 39.6227 110.413 39.5489L111.827 40.9631C112.063 40.7271 112.158 40.4438 112.202 40.2529C112.25 40.0484 112.264 39.8341 112.264 39.632H110.264ZM110.413 39.5489C110.487 39.4751 110.557 39.4351 110.599 39.4153C110.641 39.3955 110.667 39.3897 110.667 39.3896C110.668 39.3893 110.656 39.3923 110.624 39.3951C110.594 39.3979 110.552 39.4 110.496 39.4V41.4C110.698 41.4 110.912 41.3856 111.117 41.3384C111.308 41.2943 111.591 41.1992 111.827 40.9631L110.413 39.5489ZM110.496 39.4H107.232V41.4H110.496V39.4ZM107.232 39.4C107.199 39.4 107.175 39.3984 107.159 39.3967C107.142 39.3949 107.136 39.3933 107.139 39.3939C107.142 39.3948 107.191 39.4075 107.256 39.456L106.056 41.056C106.433 41.339 106.88 41.4 107.232 41.4V39.4ZM107.256 39.456C107.449 39.6007 107.533 39.7745 107.553 39.8163C107.585 39.8825 107.602 39.9371 107.61 39.9619C107.625 40.0134 107.631 40.0509 107.631 40.0552C107.634 40.0699 107.632 40.066 107.629 40.0294C107.624 39.9622 107.617 39.8486 107.61 39.68C107.597 39.3467 107.584 38.8444 107.572 38.1683C107.548 36.8184 107.528 34.8011 107.512 32.114C107.48 26.7411 107.464 18.7035 107.464 8H105.464C105.464 18.7045 105.48 26.7469 105.512 32.126C105.528 34.8149 105.548 36.8416 105.572 38.2037C105.584 38.8836 105.597 39.4043 105.612 39.761C105.619 39.9374 105.627 40.0856 105.636 40.1969C105.641 40.2495 105.647 40.3141 105.657 40.3764C105.662 40.4044 105.672 40.4606 105.691 40.5255C105.7 40.5569 105.719 40.617 105.753 40.6873C105.775 40.7332 105.861 40.9098 106.056 41.056L107.256 39.456ZM107.464 8C107.464 7.93084 107.467 7.87862 107.471 7.84103C107.475 7.80261 107.479 7.7874 107.478 7.78966C107.478 7.79077 107.469 7.82453 107.44 7.87514C107.41 7.9274 107.354 8.00682 107.256 8.08L106.056 6.48C105.737 6.71902 105.605 7.0505 105.546 7.27434C105.483 7.51098 105.464 7.76283 105.464 8H107.464ZM107.363 7.9871C107.314 8.03666 107.267 8.0663 107.236 8.08258C107.205 8.09845 107.187 8.10287 107.19 8.10223C107.192 8.10165 107.208 8.09776 107.24 8.0942C107.273 8.09068 107.318 8.088 107.376 8.088V6.088C106.979 6.088 106.377 6.14441 105.949 6.57289L107.363 7.9871ZM107.376 8.088H111.552V6.088H107.376V8.088ZM111.552 8.088C111.585 8.088 111.609 8.08957 111.625 8.09131C111.642 8.09305 111.648 8.09473 111.645 8.09414C111.642 8.09324 111.593 8.08049 111.528 8.032L112.728 6.432C112.351 6.14895 111.904 6.088 111.552 6.088V8.088ZM111.681 8.12643C111.599 8.08546 111.553 8.04346 111.543 8.03401C111.531 8.0223 111.534 8.02298 111.551 8.04571C111.588 8.09285 111.648 8.18341 111.73 8.33485L113.486 7.37715C113.376 7.17658 113.26 6.98715 113.137 6.82629C113.029 6.68634 112.845 6.47234 112.575 6.33757L111.681 8.12643ZM111.657 8.16549L118.281 28.5175L120.183 27.8985L113.559 7.54651L111.657 8.16549ZM118.263 28.4564L119.223 32.2004L121.161 31.7036L120.201 27.9596L118.263 28.4564ZM121.192 31.952V28.448H119.192V31.952H121.192ZM121.192 28.448V7.856H119.192V28.448H121.192ZM121.192 7.856C121.192 7.80028 121.194 7.75804 121.197 7.72753C121.2 7.69643 121.203 7.68356 121.202 7.68486C121.202 7.68518 121.196 7.71145 121.177 7.75308C121.157 7.79487 121.117 7.86532 121.043 7.9391L119.629 6.5249C119.393 6.76094 119.298 7.04415 119.254 7.23514C119.206 7.43965 119.192 7.65388 119.192 7.856H121.192ZM121.043 7.93911C120.969 8.01289 120.899 8.05294 120.857 8.07274C120.815 8.09246 120.789 8.09832 120.789 8.09839C120.788 8.09869 120.8 8.09572 120.832 8.09289C120.862 8.09012 120.904 8.088 120.96 8.088V6.088C120.758 6.088 120.544 6.10241 120.339 6.14961C120.148 6.19368 119.865 6.28885 119.629 6.52489L121.043 7.93911ZM120.96 8.088H124.224V6.088H120.96V8.088ZM124.224 8.088C124.346 8.088 124.382 8.09831 124.365 8.09414C124.355 8.09147 124.305 8.0785 124.238 8.04057C124.169 8.00183 124.06 7.92461 123.968 7.7867L125.632 6.6773C125.392 6.31763 125.029 6.19845 124.851 6.15386C124.642 6.10169 124.422 6.088 124.224 6.088V8.088ZM124.093 7.9391C124.019 7.86532 123.979 7.79487 123.959 7.75308C123.94 7.71145 123.934 7.68518 123.934 7.68486C123.933 7.68356 123.936 7.69643 123.939 7.72753C123.942 7.75804 123.944 7.80028 123.944 7.856H125.944C125.944 7.65388 125.93 7.43965 125.882 7.23514C125.838 7.04415 125.743 6.76094 125.507 6.5249L124.093 7.9391ZM123.944 7.856V39.488H125.944V7.856H123.944ZM123.944 39.488C123.944 39.5572 123.941 39.6094 123.937 39.647C123.933 39.6854 123.929 39.7006 123.93 39.6983C123.93 39.6972 123.939 39.6635 123.968 39.6129C123.998 39.5606 124.054 39.4812 124.152 39.408L125.352 41.008C125.671 40.769 125.803 40.4375 125.862 40.2137C125.925 39.977 125.944 39.7252 125.944 39.488H123.944ZM123.952 39.608C124.083 39.4338 124.232 39.3921 124.237 39.3905C124.246 39.3879 124.239 39.3909 124.21 39.3941C124.181 39.3973 124.139 39.4 124.08 39.4V41.4C124.307 41.4 124.552 41.3805 124.787 41.3135C125.016 41.2479 125.325 41.1102 125.552 40.808L123.952 39.608ZM124.08 39.4H119.904V41.4H124.08V39.4ZM133.056 40.208L133.763 39.5009L133.713 39.4506L133.656 39.408L133.056 40.208ZM133.008 7.28L132.301 6.57289L132.301 6.57289L133.008 7.28ZM150.24 7.28L149.346 7.72721L149.373 7.78289L149.408 7.8347L150.24 7.28ZM150.192 11.984L150.899 12.6911L150.949 12.6409L150.992 12.584L150.192 11.984ZM138.144 12.128V11.128H137.144V12.128H138.144ZM138.144 20.816H137.144V21.816H138.144V20.816ZM138.144 25.856V24.856H137.144V25.856H138.144ZM138.144 35.36H137.144V36.36H138.144V35.36ZM134.208 39.4C133.913 39.4 133.719 39.3847 133.604 39.3656C133.548 39.3562 133.535 39.3497 133.551 39.3557C133.559 39.3586 133.656 39.3938 133.763 39.5009L132.349 40.9151C132.654 41.2206 133.068 41.3038 133.276 41.3384C133.545 41.3833 133.863 41.4 134.208 41.4V39.4ZM133.656 39.408C133.756 39.4829 133.816 39.5619 133.849 39.6121C133.882 39.6628 133.898 39.7022 133.905 39.718C133.915 39.7461 133.909 39.7406 133.899 39.678C133.88 39.5547 133.864 39.3396 133.864 39.008H131.864C131.864 39.3804 131.88 39.7173 131.925 39.994C131.947 40.1314 131.981 40.2879 132.039 40.44C132.091 40.5732 132.205 40.8199 132.456 41.008L133.656 39.408ZM133.864 39.008V8.384H131.864V39.008H133.864ZM133.864 8.384C133.864 8.08111 133.876 7.87862 133.892 7.75734C133.9 7.69571 133.905 7.68235 133.9 7.6994C133.897 7.70912 133.887 7.74077 133.864 7.78462C133.843 7.82609 133.798 7.90438 133.715 7.9871L132.301 6.57289C132.104 6.76981 132.024 6.99802 131.99 7.1066C131.949 7.23965 131.924 7.37629 131.908 7.49866C131.876 7.74538 131.864 8.04689 131.864 8.384H133.864ZM133.715 7.9871C133.614 8.08847 133.522 8.1239 133.51 8.12857C133.492 8.13568 133.5 8.13008 133.551 8.12121C133.655 8.10321 133.835 8.088 134.112 8.088V6.088C133.781 6.088 133.473 6.10478 133.209 6.15079C132.998 6.18738 132.6 6.27388 132.301 6.57289L133.715 7.9871ZM134.112 8.088H149.616V6.088H134.112V8.088ZM149.616 8.088C149.746 8.088 149.773 8.10149 149.742 8.09178C149.719 8.08483 149.487 8.01008 149.346 7.72721L151.134 6.83279C150.929 6.42192 150.561 6.25116 150.33 6.18022C150.091 6.1065 149.838 6.088 149.616 6.088V8.088ZM149.408 7.8347C149.384 7.79909 149.368 7.76759 149.356 7.74338C149.345 7.71909 149.338 7.69943 149.333 7.68623C149.325 7.66113 149.324 7.65032 149.326 7.6604C149.327 7.66949 149.33 7.69002 149.332 7.72452C149.334 7.75857 149.336 7.80202 149.336 7.856H151.336C151.336 7.6804 151.327 7.50101 151.298 7.3316C151.273 7.17917 151.219 6.94525 151.072 6.7253L149.408 7.8347ZM149.336 7.856V11.312H151.336V7.856H149.336ZM149.336 11.312C149.336 11.3675 149.334 11.4118 149.331 11.4461C149.328 11.4807 149.324 11.5013 149.322 11.5105C149.32 11.52 149.321 11.5118 149.329 11.4914C149.338 11.4709 149.356 11.4315 149.392 11.384L150.992 12.584C151.295 12.1794 151.336 11.6674 151.336 11.312H149.336ZM149.485 11.2769C149.55 11.2123 149.612 11.174 149.655 11.1526C149.697 11.1315 149.726 11.1237 149.733 11.1219C149.744 11.1193 149.712 11.128 149.616 11.128V13.128C149.808 13.128 150.016 13.1127 150.219 13.0621C150.415 13.0131 150.677 12.913 150.899 12.6911L149.485 11.2769ZM149.616 11.128H138.144V13.128H149.616V11.128ZM137.144 12.128V20.816H139.144V12.128H137.144ZM138.144 21.816H148.992V19.816H138.144V21.816ZM148.992 21.816C149.026 21.816 149.013 21.8208 148.972 21.8062C148.925 21.7896 148.861 21.7544 148.802 21.6919C148.683 21.5648 148.712 21.4667 148.712 21.584H150.712C150.712 21.1893 150.621 20.7072 150.262 20.3241C149.891 19.9287 149.403 19.816 148.992 19.816V21.816ZM148.712 21.584V25.04H150.712V21.584H148.712ZM148.712 25.04C148.712 25.1865 148.677 25.1096 148.782 24.9904C148.837 24.9287 148.901 24.8895 148.954 24.8695C149.001 24.8518 149.02 24.856 148.992 24.856V26.856C149.421 26.856 149.916 26.7287 150.282 26.3136C150.627 25.9224 150.712 25.4375 150.712 25.04H148.712ZM148.992 24.856H138.144V26.856H148.992V24.856ZM137.144 25.856V35.36H139.144V25.856H137.144ZM138.144 36.36H150.192V34.36H138.144V36.36ZM150.192 36.36C150.205 36.36 150.171 36.3621 150.111 36.3379C150.045 36.3113 149.977 36.2641 149.924 36.1997C149.874 36.1394 149.86 36.0908 149.858 36.0837C149.856 36.079 149.864 36.1054 149.864 36.176H151.864C151.864 35.792 151.789 35.318 151.468 34.9283C151.116 34.5014 150.627 34.36 150.192 34.36V36.36ZM149.864 36.176V39.632H151.864V36.176H149.864ZM149.864 39.632C149.864 39.7642 149.832 39.6766 149.943 39.5495C150.001 39.4834 150.07 39.4403 150.13 39.4175C150.184 39.397 150.211 39.4 150.192 39.4V41.4C150.607 41.4 151.091 41.2751 151.449 40.8665C151.784 40.4834 151.864 40.0118 151.864 39.632H149.864ZM150.192 39.4H134.208V41.4H150.192V39.4ZM2.88 73.424L2.1729 74.1311L2.22315 74.1814L2.28 74.224L2.88 73.424ZM2.88 68.768L3.48 69.568L3.53685 69.5254L3.5871 69.4751L2.88 68.768ZM21.12 68.768L20.32 69.368L20.4057 69.4823L20.52 69.568L21.12 68.768ZM21.12 73.424L20.4129 72.7169L20.4129 72.7169L21.12 73.424ZM3.312 72.568C3.33363 72.568 3.36486 72.5715 3.40023 72.5833C3.4356 72.5951 3.4627 72.611 3.48 72.624L2.28 74.224C2.58109 74.4498 2.93563 74.568 3.312 74.568V72.568ZM3.5871 72.7169C3.59714 72.7269 3.62513 72.7583 3.64981 72.8139C3.67553 72.8717 3.688 72.9343 3.688 72.992H1.688C1.688 73.4529 1.8842 73.8424 2.1729 74.1311L3.5871 72.7169ZM3.688 72.992V69.152H1.688V72.992H3.688ZM3.688 69.152C3.688 69.2087 3.67569 69.2927 3.63043 69.3832C3.58517 69.4737 3.52538 69.534 3.48 69.568L2.28 67.968C1.90019 68.2529 1.688 68.6772 1.688 69.152H3.688ZM3.5871 69.4751C3.57707 69.4851 3.54567 69.5131 3.49014 69.5378C3.43227 69.5635 3.36971 69.576 3.312 69.576V67.576C2.85109 67.576 2.46158 67.7722 2.1729 68.0609L3.5871 69.4751ZM3.312 69.576H20.688V67.576H3.312V69.576ZM20.688 69.576C20.674 69.576 20.6145 69.5736 20.5339 69.5378C20.4475 69.4994 20.3727 69.4383 20.32 69.368L21.92 68.168C21.5964 67.7365 21.124 67.576 20.688 67.576V69.576ZM20.52 69.568C20.4746 69.534 20.4148 69.4737 20.3696 69.3832C20.3243 69.2927 20.312 69.2087 20.312 69.152H22.312C22.312 68.6772 22.0998 68.2529 21.72 67.968L20.52 69.568ZM20.312 69.152V72.992H22.312V69.152H20.312ZM20.312 72.992C20.312 72.9343 20.3245 72.8717 20.3502 72.8139C20.3749 72.7583 20.4029 72.7269 20.4129 72.7169L21.8271 74.1311C22.1158 73.8424 22.312 73.4529 22.312 72.992H20.312ZM20.4129 72.7169C20.5706 72.5592 20.7259 72.568 20.688 72.568V74.568C21.0341 74.568 21.4774 74.4808 21.8271 74.1311L20.4129 72.7169ZM20.688 72.568H3.312V74.568H20.688V72.568Z" fill="#F1F1F1"/>
<path d="M44.96 86.192L45.6532 86.9129L45.6609 86.9052L44.96 86.192ZM41.792 88.256L41.3816 87.344L41.3729 87.348L41.792 88.256ZM38.288 89.216L38.2293 88.2177L38.2171 88.2184L38.205 88.2195L38.288 89.216ZM35.984 89.216L36.067 88.2195L36.0473 88.2178L36.0274 88.2169L35.984 89.216ZM33.584 88.928L33.4019 89.9113H33.4019L33.584 88.928ZM31.232 88.448L31.0004 89.4209L31.0104 89.4231L31.232 88.448ZM29.696 87.968L30.1098 87.0576L30.0888 87.0481L30.0674 87.0395L29.696 87.968ZM28.832 87.536L29.5391 86.8289H29.5391L28.832 87.536ZM28.784 86.864L29.7679 87.0429L29.7749 87.0041L29.7789 86.9649L28.784 86.864ZM29.12 83.552L28.1585 83.2773L28.1341 83.3627L28.1251 83.4511L29.12 83.552ZM29.36 83.12L28.9128 82.2256L28.8571 82.2534L28.8053 82.2879L29.36 83.12ZM30.128 83.264L29.7434 84.1871L29.75 84.1898L29.7566 84.1925L30.128 83.264ZM31.664 83.792L31.3608 84.745L31.3728 84.7487L31.664 83.792ZM33.968 84.32L33.81 85.3075L33.8159 85.3084L33.968 84.32ZM36.272 84.56L36.3174 83.561L36.272 84.56ZM38.384 84.368L38.1969 83.3857L38.1796 83.389L38.1624 83.3929L38.384 84.368ZM41.36 82.784L42.1409 83.4087H42.1409L41.36 82.784ZM41.12 76.928L40.3626 77.5809L40.3683 77.5875L40.3741 77.594L41.12 76.928ZM38.384 74.48L38.9506 73.6559L38.9431 73.6509L38.384 74.48ZM34.4 71.792L33.8265 72.6112L33.8335 72.6161L33.8405 72.6208L34.4 71.792ZM31.232 69.152L30.4992 69.8325L30.5054 69.8391L30.5117 69.8456L31.232 69.152ZM29.36 66.464L28.4409 66.8579L28.4467 66.8716L28.453 66.8851L29.36 66.464ZM29.648 60.128L28.7642 59.6601L28.7642 59.6601L29.648 60.128ZM31.952 57.248L32.6069 58.0037L32.614 57.9976L32.621 57.9913L31.952 57.248ZM35.12 55.28L34.7661 54.3447L34.7576 54.348L35.12 55.28ZM42.848 54.944L42.6405 55.9222L42.6548 55.9253L42.6691 55.9279L42.848 54.944ZM45.584 55.568L45.9978 54.6576L45.9327 54.628L45.864 54.608L45.584 55.568ZM46.16 56L45.1899 56.2425L45.2319 56.4106L45.328 56.5547L46.16 56ZM46.208 56.528L47.1909 56.7123L47.1965 56.6823L47.2003 56.652L46.208 56.528ZM45.632 59.6L46.5807 59.9162L46.6023 59.8514L46.6149 59.7843L45.632 59.6ZM45.248 60.224L44.6233 59.4431L44.5801 59.4777L44.5409 59.5169L45.248 60.224ZM44.48 60.224L44.7962 59.2753L44.7372 59.2556L44.6761 59.2434L44.48 60.224ZM42.992 59.888L42.6937 60.8425L42.7214 60.8511L42.7495 60.8581L42.992 59.888ZM41.408 59.504L41.2237 60.4869L41.2342 60.4888L41.408 59.504ZM39.92 59.312L39.9865 58.3142L39.9865 58.3142L39.92 59.312ZM38.528 59.312L38.4568 58.3145L38.4262 58.3167L38.3958 58.3208L38.528 59.312ZM35.264 60.8L34.5281 60.1229L34.5206 60.1311L34.5133 60.1394L35.264 60.8ZM35.168 66.128L35.9489 65.5033H35.9489L35.168 66.128ZM38.48 68.864L39.0313 68.0297L39.0268 68.0267L38.48 68.864ZM45.824 74.48L45.075 75.1426L45.0815 75.1499L45.0881 75.1571L45.824 74.48ZM47.312 76.928L46.3562 77.2221L46.3631 77.2446L46.3711 77.2667L47.312 76.928ZM44.2669 85.4712C43.5332 86.1767 42.579 86.8053 41.3816 87.3441L42.2024 89.1679C43.565 88.5547 44.7228 87.8073 45.6531 86.9128L44.2669 85.4712ZM41.3729 87.348C40.2099 87.8848 39.1647 88.1627 38.2293 88.2177L38.3467 90.2143C39.5873 90.1413 40.8781 89.7792 42.2111 89.164L41.3729 87.348ZM38.205 88.2195C37.4922 88.2789 36.7798 88.2789 36.067 88.2195L35.901 90.2125C36.7242 90.2812 37.5478 90.2812 38.371 90.2125L38.205 88.2195ZM36.0274 88.2169C35.3458 88.1873 34.5927 88.0978 33.7661 87.9447L33.4019 89.9113C34.3033 90.0782 35.1502 90.1807 35.9406 90.2151L36.0274 88.2169ZM33.7661 87.9447C32.9126 87.7867 32.1421 87.6293 31.4536 87.4729L31.0104 89.4231C31.7299 89.5867 32.5274 89.7493 33.4019 89.9113L33.7661 87.9447ZM31.4636 87.4752C30.8136 87.3204 30.3746 87.178 30.1098 87.0576L29.2822 88.8784C29.7214 89.078 30.3064 89.2556 31.0004 89.4208L31.4636 87.4752ZM30.0674 87.0395C29.8398 86.9485 29.6762 86.8761 29.5672 86.8216C29.5128 86.7944 29.4826 86.7769 29.47 86.769C29.4497 86.7563 29.4859 86.7757 29.5391 86.8289L28.1249 88.2431C28.299 88.4172 28.5284 88.5382 28.6728 88.6104C28.8518 88.6999 29.0722 88.7955 29.3246 88.8965L30.0674 87.0395ZM29.5391 86.8289C29.6444 86.9341 29.6953 87.0422 29.7189 87.1096C29.7418 87.1753 29.7451 87.2192 29.7455 87.2248C29.746 87.2323 29.7447 87.2215 29.7475 87.187C29.7503 87.1537 29.7563 87.1063 29.7679 87.0429L27.8001 86.6851C27.7609 86.9011 27.7341 87.1374 27.7505 87.3672C27.7653 87.5733 27.826 87.9442 28.1249 88.2431L29.5391 86.8289ZM29.7789 86.9649L30.1149 83.6529L28.1251 83.4511L27.7891 86.7631L29.7789 86.9649ZM30.0815 83.8267C30.1004 83.7605 30.111 83.7458 30.1022 83.7616C30.0969 83.7712 30.0821 83.7962 30.0544 83.8289C30.0265 83.8619 29.9812 83.9077 29.9147 83.952L28.8053 82.2879C28.3908 82.5643 28.2315 83.0216 28.1585 83.2773L30.0815 83.8267ZM29.8072 84.0144C29.6775 84.0793 29.5689 84.0902 29.5216 84.0921C29.4726 84.0942 29.4498 84.0883 29.4637 84.0909C29.4754 84.0931 29.5047 84.0997 29.5549 84.116C29.6043 84.1321 29.6667 84.1551 29.7434 84.1871L30.5126 82.3409C30.2894 82.2479 30.0571 82.1673 29.8323 82.1251C29.6439 82.0898 29.2767 82.0436 28.9128 82.2256L29.8072 84.0144ZM29.7566 84.1925C30.1124 84.3348 30.6536 84.5199 31.3608 84.7449L31.9672 82.8391C31.2664 82.6161 30.7836 82.4492 30.4994 82.3355L29.7566 84.1925ZM31.3728 84.7487C32.1547 84.9866 32.9673 85.1726 33.81 85.3074L34.126 83.3326C33.3687 83.2114 32.6453 83.0454 31.9552 82.8353L31.3728 84.7487ZM33.8159 85.3084C34.6767 85.4408 35.4808 85.5251 36.2266 85.559L36.3174 83.561C35.6552 83.5309 34.9233 83.4552 34.1201 83.3316L33.8159 85.3084ZM36.2266 85.559C37.0225 85.5951 37.8162 85.5225 38.6056 85.3431L38.1624 83.3929C37.5438 83.5335 36.9296 83.5889 36.3174 83.561L36.2266 85.559ZM38.5711 85.3503C40.07 85.0648 41.3082 84.4495 42.1409 83.4087L40.5791 82.1593C40.1318 82.7185 39.386 83.1592 38.1969 83.3857L38.5711 85.3503ZM42.1409 83.4087C42.9362 82.4145 43.32 81.2285 43.32 79.904H41.32C41.32 80.8195 41.0638 81.5535 40.5791 82.1593L42.1409 83.4087ZM43.32 79.904C43.32 78.5441 42.8112 77.3207 41.8659 76.262L40.3741 77.594C41.0288 78.3273 41.32 79.0879 41.32 79.904H43.32ZM41.8774 76.2751C41.0206 75.2811 40.0442 74.4079 38.9505 73.656L37.8175 75.304C38.7718 75.9601 39.6194 76.7189 40.3626 77.5809L41.8774 76.2751ZM38.9431 73.6509C37.5672 72.723 36.2394 71.8271 34.9595 70.9632L33.8405 72.6208C35.1206 73.4849 36.4488 74.381 37.8249 75.3091L38.9431 73.6509ZM34.9735 70.9728C33.7314 70.1033 32.7285 69.2644 31.9523 68.4584L30.5117 69.8456C31.3995 70.7676 32.5086 71.6887 33.8265 72.6112L34.9735 70.9728ZM31.9648 68.4715C31.1878 67.6348 30.6298 66.8244 30.267 66.0429L28.453 66.8851C28.9222 67.8956 29.6122 68.8772 30.4992 69.8325L31.9648 68.4715ZM30.2791 66.0701C29.9544 65.3123 29.784 64.4563 29.784 63.488H27.784C27.784 64.6957 27.9976 65.8237 28.4409 66.8579L30.2791 66.0701ZM29.784 63.488C29.784 62.5102 30.0267 61.5499 30.5318 60.5959L28.7642 59.6601C28.1173 60.8821 27.784 62.1618 27.784 63.488H29.784ZM30.5318 60.5959C31.0481 59.6206 31.7373 58.7574 32.6069 58.0037L31.2971 56.4923C30.2467 57.4026 29.3999 58.4594 28.7642 59.6601L30.5318 60.5959ZM32.621 57.9913C33.4951 57.2045 34.4482 56.6142 35.4824 56.212L34.7576 54.348C33.4878 54.8418 32.3289 55.5635 31.283 56.5047L32.621 57.9913ZM35.4739 56.2153C36.5194 55.8197 37.7863 55.608 39.296 55.608V53.608C37.6057 53.608 36.0886 53.8443 34.7661 54.3447L35.4739 56.2153ZM39.296 55.608C40.5526 55.608 41.6654 55.7154 42.6405 55.9222L43.0555 53.9658C41.9186 53.7246 40.6634 53.608 39.296 53.608V55.608ZM42.6691 55.9279C43.7017 56.1156 44.5783 56.3163 45.304 56.528L45.864 54.608C45.0537 54.3717 44.1063 54.1564 43.0269 53.9601L42.6691 55.9279ZM45.1702 56.4784C45.2387 56.5095 45.2912 56.5362 45.3302 56.5579C45.37 56.5802 45.3884 56.5933 45.392 56.596C45.3976 56.6002 45.3711 56.5817 45.3341 56.5367C45.2978 56.4926 45.2279 56.3946 45.1899 56.2425L47.1301 55.7575C47.0283 55.3502 46.7388 55.1061 46.592 54.996C46.414 54.8625 46.2049 54.7518 45.9978 54.6576L45.1702 56.4784ZM45.328 56.5547C45.2769 56.4782 45.2518 56.4107 45.2396 56.3692C45.2274 56.3276 45.2246 56.3003 45.2241 56.2945C45.2234 56.2867 45.2265 56.3178 45.2157 56.404L47.2003 56.652C47.2215 56.4822 47.2326 56.2973 47.2159 56.1135C47.2001 55.9401 47.1529 55.6865 46.992 55.4453L45.328 56.5547ZM45.2251 56.3437L44.6491 59.4157L46.6149 59.7843L47.1909 56.7123L45.2251 56.3437ZM44.6833 59.2838C44.654 59.3718 44.6278 59.4228 44.6123 59.4479C44.5974 59.4722 44.5981 59.4633 44.6233 59.4431L45.8727 61.0049C46.2393 60.7116 46.4513 60.3043 46.5807 59.9162L44.6833 59.2838ZM44.5409 59.5169C44.7306 59.3272 44.9339 59.32 44.96 59.32C44.9769 59.32 44.9722 59.3218 44.9401 59.3154C44.9091 59.3092 44.8618 59.2972 44.7962 59.2753L44.1638 61.1727C44.4057 61.2533 44.6808 61.32 44.96 61.32C45.2421 61.32 45.6374 61.2488 45.9551 60.9311L44.5409 59.5169ZM44.6761 59.2434C44.2128 59.1508 43.7323 59.0423 43.2345 58.9179L42.7495 60.8581C43.2757 60.9897 43.7872 61.1052 44.2839 61.2046L44.6761 59.2434ZM43.2903 58.9335C42.7363 58.7604 42.1666 58.6224 41.5818 58.5192L41.2342 60.4888C41.7374 60.5776 42.2237 60.6956 42.6937 60.8425L43.2903 58.9335ZM41.5923 58.5211C41.0445 58.4184 40.5091 58.3491 39.9865 58.3142L39.8535 60.3098C40.2909 60.3389 40.7475 60.3976 41.2237 60.4869L41.5923 58.5211ZM39.9865 58.3142C39.4639 58.2794 38.9537 58.279 38.4568 58.3145L38.5992 60.3095C38.9983 60.281 39.4161 60.2806 39.8535 60.3098L39.9865 58.3142ZM38.3958 58.3208C36.8024 58.5332 35.4688 59.1004 34.5281 60.1229L35.9999 61.4771C36.5312 60.8995 37.3736 60.4748 38.6602 60.3032L38.3958 58.3208ZM34.5133 60.1394C33.6304 61.1426 33.208 62.3778 33.208 63.776H35.208C35.208 62.8062 35.4896 62.0574 36.0147 61.4606L34.5133 60.1394ZM33.208 63.776C33.208 64.8368 33.6527 65.8347 34.3871 66.7527L35.9489 65.5033C35.4033 64.8213 35.208 64.2512 35.208 63.776H33.208ZM34.3871 66.7527C35.1271 67.6777 36.3371 68.6589 37.9332 69.7013L39.0268 68.0267C37.4869 67.0211 36.4889 66.1783 35.9489 65.5033L34.3871 66.7527ZM37.9287 69.6983C39.7132 70.8773 41.1873 71.8921 42.3545 72.7438L43.5335 71.1282C42.3327 70.2519 40.8309 69.2187 39.0313 68.0297L37.9287 69.6983ZM42.3545 72.7438C43.4976 73.5779 44.3992 74.3786 45.075 75.1426L46.573 73.8174C45.7768 72.9174 44.7584 72.0221 43.5335 71.1282L42.3545 72.7438ZM45.0881 75.1571C45.7476 75.874 46.1536 76.5634 46.3562 77.2221L48.2678 76.6339C47.9584 75.6286 47.3724 74.686 46.5599 73.8029L45.0881 75.1571ZM46.3711 77.2667C46.6153 77.945 46.744 78.7087 46.744 79.568H48.744C48.744 78.5073 48.5847 77.511 48.2529 76.5893L46.3711 77.2667ZM46.744 79.568C46.744 81.8906 45.9246 83.8419 44.2591 85.4788L45.6609 86.9052C47.7074 84.8941 48.744 82.4294 48.744 79.568H46.744ZM66.608 60.128V59.128H65.608V60.128H66.608ZM61.184 60.128H62.184V59.128H61.184V60.128ZM53.216 59.984L52.416 60.584L52.5017 60.6983L52.616 60.784L53.216 59.984ZM53.216 55.28L52.5089 54.5729L52.5089 54.5729L53.216 55.28ZM74.576 55.28L73.776 55.88L73.8617 55.9943L73.976 56.08L74.576 55.28ZM65.608 60.128V87.824H67.608V60.128H65.608ZM65.608 87.824C65.608 87.8619 65.5992 87.7066 65.7569 87.5489C65.9146 87.3912 66.0699 87.4 66.032 87.4V89.4C66.3781 89.4 66.8214 89.3128 67.1711 88.9631C67.5208 88.6134 67.608 88.1701 67.608 87.824H65.608ZM66.032 87.4H61.76V89.4H66.032V87.4ZM61.76 87.4C61.7221 87.4 61.8774 87.3912 62.0351 87.5489C62.1928 87.7066 62.184 87.8619 62.184 87.824H60.184C60.184 88.1701 60.2712 88.6134 60.6209 88.9631C60.9706 89.3128 61.4139 89.4 61.76 89.4V87.4ZM62.184 87.824V60.128H60.184V87.824H62.184ZM61.184 59.128H53.648V61.128H61.184V59.128ZM53.648 59.128C53.6696 59.128 53.7009 59.1315 53.7362 59.1433C53.7716 59.1551 53.7987 59.171 53.816 59.184L52.616 60.784C52.9171 61.0098 53.2716 61.128 53.648 61.128V59.128ZM54.016 59.384C54.0417 59.4182 54.0575 59.453 54.0658 59.4807C54.0736 59.5066 54.072 59.5169 54.072 59.504H52.072C52.072 59.8679 52.1658 60.2504 52.416 60.584L54.016 59.384ZM54.072 59.504V55.664H52.072V59.504H54.072ZM54.072 55.664C54.072 55.6839 54.0689 55.7335 54.0443 55.7991C54.0186 55.8678 53.9768 55.9334 53.9231 55.9871L52.5089 54.5729C52.1922 54.8896 52.072 55.2897 52.072 55.664H54.072ZM53.9231 55.9871C53.9131 55.9971 53.8817 56.0251 53.8261 56.0498C53.7683 56.0755 53.7057 56.088 53.648 56.088V54.088C53.1871 54.088 52.7976 54.2842 52.5089 54.5729L53.9231 55.9871ZM53.648 56.088H74.192V54.088H53.648V56.088ZM74.192 56.088C74.1353 56.088 74.0513 56.0757 73.9608 56.0304C73.8703 55.9852 73.81 55.9254 73.776 55.88L75.376 54.68C75.0911 54.3002 74.6668 54.088 74.192 54.088V56.088ZM73.976 56.08C73.9306 56.046 73.8708 55.9857 73.8256 55.8952C73.7803 55.8047 73.768 55.7207 73.768 55.664H75.768C75.768 55.1892 75.5558 54.7649 75.176 54.48L73.976 56.08ZM73.768 55.664V59.504H75.768V55.664H73.768ZM73.768 59.504C73.768 59.5768 73.7495 59.445 73.8892 59.2937C74.0428 59.1273 74.2084 59.128 74.192 59.128V61.128C74.5596 61.128 75.0132 61.0247 75.3588 60.6503C75.6905 60.291 75.768 59.8472 75.768 59.504H73.768ZM74.192 59.128H66.608V61.128H74.192V59.128ZM82.304 84.272L81.4078 84.7157L82.304 84.272ZM80.192 67.04L79.1986 66.9248L79.1973 66.9376L80.192 67.04ZM81.68 60.944L80.7537 60.5672L80.7504 60.5754L81.68 60.944ZM84.752 56.336L84.082 55.5935L84.073 55.6019L84.752 56.336ZM93.488 55.424L93.0091 56.3019L93.0195 56.3076L93.03 56.313L93.488 55.424ZM96.176 57.68L95.3824 58.2884L95.3874 58.295L95.3925 58.3014L96.176 57.68ZM97.952 60.944L97.0108 61.2819L97.0146 61.2925L97.0187 61.303L97.952 60.944ZM99.68 69.2L98.6822 69.2665L99.68 69.2ZM99.2 78.368L98.2155 78.1927L99.2 78.368ZM97.328 84.272L96.4408 83.8106L96.4371 83.8177L96.4336 83.8248L97.328 84.272ZM94.304 87.92L93.7393 87.0947L93.732 87.0997L93.7248 87.1048L94.304 87.92ZM87.728 60.464L88.3477 61.2489L88.3527 61.2449L87.728 60.464ZM86.144 62.816L87.0646 63.2066L87.0687 63.1967L86.144 62.816ZM85.088 66.992L84.0988 66.8454L84.0975 66.8544L84.0963 66.8634L85.088 66.992ZM85.088 76.832L84.0963 76.9606L84.0975 76.9696L84.0988 76.9785L85.088 76.832ZM86.144 81.056L85.2193 81.4368L85.2234 81.4465L86.144 81.056ZM87.728 83.408L87.0839 84.1729L87.1054 84.1911L87.128 84.208L87.728 83.408ZM91.856 83.408L92.4757 84.1929L92.4807 84.1889L91.856 83.408ZM93.488 81.056L94.4086 81.4466L94.4127 81.4367L93.488 81.056ZM94.496 76.832L93.5068 76.6854L93.5055 76.6944L93.5043 76.7034L94.496 76.832ZM94.496 66.992L93.5043 67.1206L93.5055 67.1296L93.5068 67.1385L94.496 66.992ZM93.488 62.816L92.5633 63.1968L92.5674 63.2065L93.488 62.816ZM91.856 60.464L91.2119 61.2289L91.2334 61.2471L91.256 61.264L91.856 60.464ZM89.888 88.216C88.343 88.216 87.0505 87.8466 85.9701 87.1423C84.8856 86.4353 83.9541 85.351 83.2002 83.8283L81.4078 84.7157C82.2859 86.489 83.4344 87.8767 84.8779 88.8177C86.3255 89.7614 88.009 90.216 89.888 90.216V88.216ZM83.2002 83.8283C81.656 80.7097 80.856 76.7451 80.856 71.888H78.856C78.856 76.9509 79.688 81.2423 81.4078 84.7157L83.2002 83.8283ZM80.856 71.888C80.856 70.8859 80.9634 69.3123 81.1867 67.1424L79.1973 66.9376C78.9726 69.1197 78.856 70.7781 78.856 71.888H80.856ZM81.1853 67.1552C81.4324 65.0244 81.9092 63.0787 82.6096 61.3126L80.7504 60.5754C79.9788 62.5213 79.4636 64.6396 79.1987 66.9248L81.1853 67.1552ZM82.6063 61.3208C83.3283 59.5458 84.2754 58.1391 85.431 57.0701L84.073 55.6019C82.6686 56.9009 81.5677 58.5662 80.7537 60.5672L82.6063 61.3208ZM85.422 57.0784C86.5156 56.0914 87.9726 55.56 89.888 55.56V53.56C87.5794 53.56 85.6124 54.2126 84.082 55.5936L85.422 57.0784ZM89.888 55.56C91.0847 55.56 92.1166 55.8151 93.0091 56.3019L93.9669 54.5461C92.7474 53.8809 91.3793 53.56 89.888 53.56V55.56ZM93.03 56.313C93.9524 56.7881 94.7345 57.4434 95.3824 58.2884L96.9696 57.0716C96.1455 55.9966 95.1356 55.1479 93.946 54.535L93.03 56.313ZM95.3925 58.3014C96.0533 59.1346 96.5952 60.1242 97.0108 61.2819L98.8932 60.6061C98.4128 59.2678 97.7707 58.0814 96.9595 57.0586L95.3925 58.3014ZM97.0187 61.303C97.4774 62.4958 97.8465 63.7705 98.1243 65.1284L100.084 64.7276C99.7855 63.2695 99.3866 61.8882 98.8853 60.585L97.0187 61.303ZM98.1243 65.1284C98.4032 66.492 98.5892 67.8713 98.6822 69.2665L100.678 69.1335C100.579 67.6487 100.381 66.18 100.084 64.7276L98.1243 65.1284ZM98.6822 69.2665C98.7791 70.7195 98.824 71.577 98.824 71.888H100.824C100.824 71.495 100.773 70.5605 100.678 69.1335L98.6822 69.2665ZM98.824 71.888C98.824 73.8031 98.6231 75.9037 98.2155 78.1927L100.185 78.5433C100.609 76.1603 100.824 73.9409 100.824 71.888H98.824ZM98.2155 78.1927C97.812 80.4585 97.214 82.3237 96.4408 83.8106L98.2152 84.7334C99.106 83.0203 99.756 80.9495 100.185 78.5433L98.2155 78.1927ZM96.4336 83.8248C95.6934 85.3051 94.788 86.3772 93.7393 87.0947L94.8687 88.7453C96.252 87.7988 97.3626 86.4389 98.2224 84.7192L96.4336 83.8248ZM93.7248 87.1048C92.7037 87.8303 91.4424 88.216 89.888 88.216V90.216C91.7896 90.216 93.4723 89.7377 94.8832 88.7352L93.7248 87.1048ZM89.84 58.696C88.8291 58.696 87.9078 59.0395 87.1033 59.6831L88.3527 61.2449C88.8282 60.8645 89.3149 60.696 89.84 60.696V58.696ZM87.1084 59.6791C86.3135 60.3067 85.7015 61.2643 85.2193 62.4353L87.0687 63.1967C87.4825 62.1917 87.9265 61.5813 88.3476 61.2489L87.1084 59.6791ZM85.2234 62.4254C84.7298 63.5889 84.3615 65.0724 84.0988 66.8454L86.0772 67.1385C86.3265 65.4556 86.6622 64.1551 87.0646 63.2065L85.2234 62.4254ZM84.0963 66.8634C83.8675 68.6285 83.752 70.3038 83.752 71.888H85.752C85.752 70.4002 85.8605 68.8115 86.0797 67.1206L84.0963 66.8634ZM83.752 71.888C83.752 73.5034 83.8674 75.1946 84.0963 76.9606L86.0797 76.7034C85.8606 75.0134 85.752 73.4086 85.752 71.888H83.752ZM84.0988 76.9785C84.3616 78.7521 84.7294 80.2468 85.2193 81.4367L87.0687 80.6753C86.6626 79.6892 86.3264 78.3679 86.0772 76.6855L84.0988 76.9785ZM85.2234 81.4465C85.7075 82.5877 86.3142 83.5248 87.0839 84.1729L88.3721 82.6431C87.9258 82.2672 87.4765 81.6363 87.0646 80.6655L85.2234 81.4465ZM87.128 84.208C87.9334 84.812 88.8462 85.128 89.84 85.128V83.128C89.2978 83.128 88.8026 82.964 88.328 82.608L87.128 84.208ZM89.84 85.128C90.8132 85.128 91.7011 84.8044 92.4756 84.1929L91.2364 82.6231C90.7949 82.9716 90.3388 83.128 89.84 83.128V85.128ZM92.4807 84.1889C93.2915 83.5402 93.9203 82.5975 94.4086 81.4465L92.5674 80.6655C92.1597 81.6265 91.7005 82.2518 91.2313 82.6271L92.4807 84.1889ZM94.4127 81.4367C94.9057 80.2393 95.2573 78.7379 95.4877 76.9606L93.5043 76.7034C93.2867 78.3821 92.9663 79.6967 92.5633 80.6753L94.4127 81.4367ZM95.4852 76.9785C95.7476 75.2074 95.88 73.5102 95.88 71.888H93.88C93.88 73.4018 93.7564 75.0006 93.5068 76.6854L95.4852 76.9785ZM95.88 71.888C95.88 70.2968 95.7474 68.6155 95.4852 66.8454L93.5068 67.1385C93.7566 68.8245 93.88 70.4072 93.88 71.888H95.88ZM95.4877 66.8634C95.2574 65.0868 94.9054 63.5965 94.4086 62.4254L92.5674 63.2065C92.9666 64.1475 93.2866 65.4412 93.5043 67.1206L95.4877 66.8634ZM94.4127 62.4353C93.9263 61.2541 93.2924 60.2913 92.456 59.664L91.256 61.264C91.6996 61.5967 92.1537 62.2019 92.5633 63.1967L94.4127 62.4353ZM92.5001 59.6991C91.7274 59.0483 90.8312 58.696 89.84 58.696V60.696C90.3208 60.696 90.7686 60.8557 91.2119 61.2289L92.5001 59.6991ZM121.856 88.352L121.613 89.3221L121.856 88.352ZM121.424 87.968L120.539 88.4339L120.571 88.494L120.61 88.5492L121.424 87.968ZM114.752 75.296L115.637 74.8301L115.356 74.296H114.752V75.296ZM111.728 75.296V74.296H110.728V75.296H111.728ZM106.592 55.232L105.992 54.432L105.935 54.4746L105.885 54.5249L106.592 55.232ZM122.288 57.92L121.581 58.6271L121.587 58.6331L122.288 57.92ZM123.632 70.688L122.787 70.1534L122.784 70.158L123.632 70.688ZM119.696 74.144L119.277 73.236L118.302 73.686L118.82 74.6265L119.696 74.144ZM127.232 87.824L126.356 88.3065L126.377 88.3435L126.4 88.3787L127.232 87.824ZM111.728 60.128V59.128H110.728V60.128H111.728ZM111.728 70.304H110.728V71.304H111.728V70.304ZM118.256 69.056L118.899 69.8222L118.906 69.8162L118.913 69.8101L118.256 69.056ZM118.352 61.328L117.699 62.0854L118.352 61.328ZM122.576 87.4C122.413 87.4 122.289 87.3962 122.199 87.3902C122.098 87.3835 122.076 87.3762 122.099 87.3819L121.613 89.3221C121.877 89.388 122.234 89.4 122.576 89.4V87.4ZM122.099 87.3819C122.176 87.4011 122.231 87.4287 122.264 87.4481C122.297 87.4673 122.314 87.4825 122.316 87.4846C122.319 87.487 122.313 87.4817 122.298 87.4644C122.283 87.4474 122.263 87.4222 122.238 87.3868L120.61 88.5492C120.784 88.792 121.109 89.196 121.613 89.3221L122.099 87.3819ZM122.309 87.5021L115.637 74.8301L113.867 75.7619L120.539 88.4339L122.309 87.5021ZM114.752 74.296H111.728V76.296H114.752V74.296ZM110.728 75.296V87.872H112.728V75.296H110.728ZM110.728 87.872C110.728 87.8637 110.729 87.8116 110.759 87.7365C110.791 87.6553 110.847 87.5718 110.926 87.5046C111.077 87.3773 111.195 87.4 111.104 87.4V89.4C111.429 89.4 111.859 89.3347 112.218 89.0314C112.608 88.701 112.728 88.25 112.728 87.872H110.728ZM111.104 87.4H107.024V89.4H111.104V87.4ZM107.024 87.4C106.966 87.4 107.108 87.3848 107.268 87.5308C107.444 87.692 107.448 87.8704 107.448 87.872H105.448C105.448 88.2256 105.548 88.668 105.916 89.0052C106.268 89.3272 106.698 89.4 107.024 89.4V87.4ZM107.448 87.872V55.616H105.448V87.872H107.448ZM107.448 55.616C107.448 55.6359 107.445 55.6855 107.42 55.7511C107.395 55.8198 107.353 55.8854 107.299 55.9391L105.885 54.5249C105.568 54.8416 105.448 55.2417 105.448 55.616H107.448ZM107.192 56.032C107.175 56.045 107.148 56.0609 107.112 56.0727C107.077 56.0845 107.046 56.088 107.024 56.088V54.088C106.648 54.088 106.293 54.2062 105.992 54.432L107.192 56.032ZM107.024 56.088H114.176V54.088H107.024V56.088ZM114.176 56.088C117.518 56.088 119.934 56.9806 121.581 58.6271L122.995 57.2129C120.866 55.0834 117.874 54.088 114.176 54.088V56.088ZM121.587 58.6331C123.261 60.2792 124.12 62.4112 124.12 65.12H126.12C126.12 61.9408 125.091 59.2728 122.989 57.2069L121.587 58.6331ZM124.12 65.12C124.12 67.1048 123.663 68.769 122.787 70.1534L124.477 71.2226C125.585 69.471 126.12 67.4232 126.12 65.12H124.12ZM122.784 70.158C121.928 71.5269 120.766 72.5486 119.277 73.236L120.115 75.052C121.954 74.2034 123.416 72.9211 124.48 71.218L122.784 70.158ZM118.82 74.6265L126.356 88.3065L128.108 87.3415L120.572 73.6615L118.82 74.6265ZM126.4 88.3787C126.424 88.4151 126.372 88.3531 126.353 88.2136C126.342 88.1349 126.341 88.0259 126.376 87.9024C126.412 87.7756 126.476 87.666 126.555 87.5803C126.63 87.4984 126.705 87.4517 126.754 87.4271C126.801 87.4028 126.835 87.3943 126.841 87.3927C126.85 87.3906 126.812 87.4 126.704 87.4V89.4C126.9 89.4 127.112 89.3854 127.317 89.3353C127.509 89.2882 127.797 89.1852 128.029 88.9317C128.3 88.6366 128.379 88.2669 128.333 87.9384C128.294 87.6549 128.168 87.4249 128.064 87.2693L126.4 88.3787ZM126.704 87.4H122.576V89.4H126.704V87.4ZM110.728 60.128V70.304H112.728V60.128H110.728ZM111.728 71.304H114.08V69.304H111.728V71.304ZM114.08 71.304C116.017 71.304 117.668 70.8543 118.899 69.8222L117.613 68.2898C116.86 68.9217 115.727 69.304 114.08 69.304V71.304ZM118.913 69.8101C120.186 68.7009 120.744 67.0889 120.744 65.168H118.744C118.744 66.7031 118.31 67.6831 117.599 68.3019L118.913 69.8101ZM120.744 65.168C120.744 63.2478 120.236 61.6319 119.005 60.5706L117.699 62.0854C118.324 62.6241 118.744 63.5682 118.744 65.168H120.744ZM119.005 60.5706C117.857 59.5807 116.391 59.128 114.704 59.128V61.128C116.025 61.128 116.991 61.4753 117.699 62.0854L119.005 60.5706ZM114.704 59.128H111.728V61.128H114.704V59.128ZM133.136 88.208L133.843 87.5009L133.793 87.4506L133.736 87.408L133.136 88.208ZM133.088 55.28L132.381 54.5729V54.5729L133.088 55.28ZM150.32 55.28L149.426 55.7272L149.453 55.7829L149.488 55.8347L150.32 55.28ZM150.272 59.984L150.979 60.6911L151.029 60.6409L151.072 60.584L150.272 59.984ZM138.224 60.128V59.128H137.224V60.128H138.224ZM138.224 68.816H137.224V69.816H138.224V68.816ZM138.224 73.856V72.856H137.224V73.856H138.224ZM138.224 83.36H137.224V84.36H138.224V83.36ZM134.288 87.4C133.993 87.4 133.799 87.3847 133.684 87.3656C133.628 87.3562 133.615 87.3497 133.631 87.3557C133.639 87.3586 133.736 87.3938 133.843 87.5009L132.429 88.9151C132.734 89.2206 133.148 89.3038 133.356 89.3384C133.625 89.3833 133.943 89.4 134.288 89.4V87.4ZM133.736 87.408C133.836 87.4829 133.896 87.5619 133.929 87.6121C133.962 87.6628 133.978 87.7022 133.985 87.718C133.995 87.7461 133.989 87.7406 133.979 87.678C133.96 87.5547 133.944 87.3396 133.944 87.008H131.944C131.944 87.3804 131.96 87.7173 132.005 87.994C132.027 88.1314 132.061 88.2879 132.119 88.44C132.171 88.5732 132.285 88.8199 132.536 89.008L133.736 87.408ZM133.944 87.008V56.384H131.944V87.008H133.944ZM133.944 56.384C133.944 56.0811 133.956 55.8786 133.972 55.7573C133.98 55.6957 133.985 55.6823 133.98 55.6994C133.977 55.7091 133.967 55.7408 133.944 55.7846C133.923 55.8261 133.878 55.9044 133.795 55.9871L132.381 54.5729C132.184 54.7698 132.104 54.998 132.07 55.1066C132.029 55.2396 132.004 55.3763 131.988 55.4987C131.956 55.7454 131.944 56.0469 131.944 56.384H133.944ZM133.795 55.9871C133.694 56.0885 133.602 56.1239 133.59 56.1286C133.572 56.1357 133.58 56.1301 133.631 56.1212C133.735 56.1032 133.915 56.088 134.192 56.088V54.088C133.861 54.088 133.553 54.1048 133.289 54.1508C133.078 54.1874 132.68 54.2739 132.381 54.5729L133.795 55.9871ZM134.192 56.088H149.696V54.088H134.192V56.088ZM149.696 56.088C149.826 56.088 149.853 56.1015 149.822 56.0918C149.799 56.0848 149.567 56.0101 149.426 55.7272L151.214 54.8328C151.009 54.4219 150.641 54.2512 150.41 54.1802C150.171 54.1065 149.918 54.088 149.696 54.088V56.088ZM149.488 55.8347C149.464 55.7991 149.448 55.7676 149.436 55.7434C149.425 55.7191 149.418 55.6994 149.413 55.6862C149.405 55.6611 149.404 55.6503 149.406 55.6604C149.407 55.6695 149.41 55.69 149.412 55.7245C149.414 55.7586 149.416 55.802 149.416 55.856H151.416C151.416 55.6804 151.407 55.501 151.378 55.3316C151.353 55.1792 151.299 54.9453 151.152 54.7253L149.488 55.8347ZM149.416 55.856V59.312H151.416V55.856H149.416ZM149.416 59.312C149.416 59.3675 149.414 59.4118 149.411 59.4461C149.408 59.4807 149.404 59.5013 149.402 59.5105C149.4 59.52 149.401 59.5118 149.409 59.4914C149.418 59.4709 149.436 59.4315 149.472 59.384L151.072 60.584C151.375 60.1794 151.416 59.6674 151.416 59.312H149.416ZM149.565 59.2769C149.63 59.2123 149.692 59.174 149.735 59.1526C149.777 59.1315 149.806 59.1237 149.813 59.1219C149.824 59.1193 149.792 59.128 149.696 59.128V61.128C149.888 61.128 150.096 61.1127 150.299 61.0621C150.495 61.0131 150.757 60.913 150.979 60.6911L149.565 59.2769ZM149.696 59.128H138.224V61.128H149.696V59.128ZM137.224 60.128V68.816H139.224V60.128H137.224ZM138.224 69.816H149.072V67.816H138.224V69.816ZM149.072 69.816C149.106 69.816 149.093 69.8208 149.052 69.8062C149.005 69.7896 148.941 69.7544 148.882 69.6919C148.763 69.5648 148.792 69.4667 148.792 69.584H150.792C150.792 69.1893 150.701 68.7072 150.342 68.3241C149.971 67.9287 149.483 67.816 149.072 67.816V69.816ZM148.792 69.584V73.04H150.792V69.584H148.792ZM148.792 73.04C148.792 73.1865 148.757 73.1096 148.862 72.9904C148.917 72.9287 148.981 72.8895 149.034 72.8695C149.081 72.8518 149.1 72.856 149.072 72.856V74.856C149.501 74.856 149.996 74.7287 150.362 74.3136C150.707 73.9224 150.792 73.4375 150.792 73.04H148.792ZM149.072 72.856H138.224V74.856H149.072V72.856ZM137.224 73.856V83.36H139.224V73.856H137.224ZM138.224 84.36H150.272V82.36H138.224V84.36ZM150.272 84.36C150.285 84.36 150.251 84.3621 150.191 84.3379C150.125 84.3113 150.057 84.2641 150.004 84.1997C149.954 84.1394 149.94 84.0908 149.938 84.0837C149.936 84.079 149.944 84.1054 149.944 84.176H151.944C151.944 83.792 151.869 83.318 151.548 82.9283C151.196 82.5014 150.707 82.36 150.272 82.36V84.36ZM149.944 84.176V87.632H151.944V84.176H149.944ZM149.944 87.632C149.944 87.7642 149.912 87.6766 150.023 87.5495C150.081 87.4834 150.15 87.4403 150.21 87.4175C150.264 87.397 150.291 87.4 150.272 87.4V89.4C150.687 89.4 151.171 89.2751 151.529 88.8665C151.864 88.4834 151.944 88.0118 151.944 87.632H149.944ZM150.272 87.4H134.288V89.4H150.272V87.4Z" fill="white"/>
</svg>
