<svg width="312" height="48" viewBox="0 0 312 48" fill="none" xmlns="http://www.w3.org/2000/svg">
<path d="M12.048 41.216C8.624 41.216 6.096 39.568 4.464 36.272C2.832 32.976 2.016 28.848 2.016 23.888C2.016 22.832 2.128 21.216 2.352 19.04C2.608 16.832 3.104 14.8 3.84 12.944C4.608 11.056 5.632 9.52 6.912 8.336C8.224 7.152 9.936 6.56 12.048 6.56C13.392 6.56 14.592 6.848 15.648 7.424C16.704 7.968 17.6 8.72 18.336 9.68C19.072 10.608 19.664 11.696 20.112 12.944C20.592 14.192 20.976 15.52 21.264 16.928C21.552 18.336 21.744 19.76 21.84 21.2C21.936 22.64 21.984 23.536 21.984 23.888C21.984 25.872 21.776 28.032 21.36 30.368C20.944 32.704 20.32 34.672 19.488 36.272C18.688 37.872 17.68 39.088 16.464 39.92C15.248 40.784 13.776 41.216 12.048 41.216ZM12 11.696C11.232 11.696 10.528 11.952 9.888 12.464C9.28 12.944 8.752 13.728 8.304 14.816C7.856 15.872 7.504 17.264 7.248 18.992C7.024 20.72 6.912 22.352 6.912 23.888C6.912 25.456 7.024 27.104 7.248 28.832C7.504 30.56 7.856 31.968 8.304 33.056C8.752 34.112 9.28 34.896 9.888 35.408C10.528 35.888 11.232 36.128 12 36.128C12.736 36.128 13.408 35.888 14.016 35.408C14.656 34.896 15.2 34.112 15.648 33.056C16.096 31.968 16.432 30.56 16.656 28.832C16.912 27.104 17.04 25.456 17.04 23.888C17.04 22.352 16.912 20.72 16.656 18.992C16.432 17.264 16.096 15.872 15.648 14.816C15.2 13.728 14.656 12.944 14.016 12.464C13.408 11.952 12.736 11.696 12 11.696ZM42.144 40.4C41.888 40.4 41.696 40.352 41.568 40.256C41.44 40.16 41.28 39.952 41.088 39.632L34.464 19.28L33.504 15.536V19.04V39.632C33.504 39.952 33.456 40.16 33.36 40.256C33.264 40.352 33.056 40.4 32.736 40.4H29.472C29.216 40.4 29.024 40.352 28.896 40.256C28.768 40.16 28.704 29.408 28.704 8C28.704 7.616 28.768 7.376 28.896 7.28C29.024 7.152 29.264 7.088 29.616 7.088H33.792C34.048 7.088 34.24 7.136 34.368 7.232C34.496 7.296 34.656 7.504 34.848 7.856L41.472 28.208L42.432 31.952V28.448V7.856C42.432 7.536 42.48 7.328 42.576 7.232C42.672 7.136 42.88 7.088 43.2 7.088H46.464C46.784 7.088 46.976 7.136 47.04 7.232C47.136 7.328 47.184 7.536 47.184 7.856V39.488C47.184 39.872 47.12 40.112 46.992 40.208C46.896 40.336 46.672 40.4 46.32 40.4H42.144ZM56.112 40.4C55.952 40.4 55.808 40.336 55.68 40.208C55.584 40.112 55.536 39.984 55.536 39.824V7.664C55.536 7.504 55.584 7.376 55.68 7.28C55.808 7.152 55.952 7.088 56.112 7.088H60.384C60.544 7.088 60.672 7.152 60.768 7.28C60.896 7.376 60.96 7.504 60.96 7.664V35.36H72.48C72.864 35.36 73.056 35.568 73.056 35.984V39.824C73.056 39.984 72.992 40.112 72.864 40.208C72.768 40.336 72.64 40.4 72.48 40.4H56.112ZM81.984 40.4C81.824 40.4 81.68 40.336 81.552 40.208C81.456 40.112 81.408 39.968 81.408 39.776V35.936C81.408 35.776 81.456 35.648 81.552 35.552C81.68 35.424 81.824 35.36 81.984 35.36H87.024V12.128H82.704C82.544 12.128 82.4 12.08 82.272 11.984C82.176 11.856 82.128 11.696 82.128 11.504V7.664C82.128 7.504 82.176 7.376 82.272 7.28C82.4 7.152 82.544 7.088 82.704 7.088H96.768C96.928 7.088 97.056 7.152 97.152 7.28C97.28 7.376 97.344 7.504 97.344 7.664V11.504C97.344 11.92 97.152 12.128 96.768 12.128H92.448V35.36H97.488C97.648 35.36 97.776 35.424 97.872 35.552C98 35.648 98.064 35.776 98.064 35.936V39.776C98.064 40.192 97.872 40.4 97.488 40.4H81.984ZM119.904 40.4C119.648 40.4 119.456 40.352 119.328 40.256C119.2 40.16 119.04 39.952 118.848 39.632L112.224 19.28L111.264 15.536V19.04V39.632C111.264 39.952 111.216 40.16 111.12 40.256C111.024 40.352 110.816 40.4 110.496 40.4H107.232C106.976 40.4 106.784 40.352 106.656 40.256C106.528 40.16 106.464 29.408 106.464 8C106.464 7.616 106.528 7.376 106.656 7.28C106.784 7.152 107.024 7.088 107.376 7.088H111.552C111.808 7.088 112 7.136 112.128 7.232C112.256 7.296 112.416 7.504 112.608 7.856L119.232 28.208L120.192 31.952V28.448V7.856C120.192 7.536 120.24 7.328 120.336 7.232C120.432 7.136 120.64 7.088 120.96 7.088H124.224C124.544 7.088 124.736 7.136 124.8 7.232C124.896 7.328 124.944 7.536 124.944 7.856V39.488C124.944 39.872 124.88 40.112 124.752 40.208C124.656 40.336 124.432 40.4 124.08 40.4H119.904ZM134.208 40.4C133.568 40.4 133.184 40.336 133.056 40.208C132.928 40.112 132.864 39.712 132.864 39.008V8.384C132.864 7.744 132.912 7.376 133.008 7.28C133.136 7.152 133.504 7.088 134.112 7.088H149.616C149.968 7.088 150.176 7.152 150.24 7.28C150.304 7.376 150.336 7.568 150.336 7.856V11.312C150.336 11.632 150.288 11.856 150.192 11.984C150.096 12.08 149.904 12.128 149.616 12.128H138.144V20.816H148.992C149.472 20.816 149.712 21.072 149.712 21.584V25.04C149.712 25.584 149.472 25.856 148.992 25.856H138.144V35.36H150.192C150.64 35.36 150.864 35.632 150.864 36.176V39.632C150.864 40.144 150.64 40.4 150.192 40.4H134.208ZM158.832 25.568C158.672 25.568 158.528 25.52 158.4 25.424C158.272 25.296 158.208 25.152 158.208 24.992V21.152C158.208 20.992 158.272 20.864 158.4 20.768C158.528 20.64 158.672 20.576 158.832 20.576H176.208C176.4 20.576 176.544 20.64 176.64 20.768C176.768 20.864 176.832 20.992 176.832 21.152V24.992C176.832 25.152 176.768 25.296 176.64 25.424C176.544 25.52 176.4 25.568 176.208 25.568H158.832Z" fill="black"/>
<path d="M4.464 36.272L3.56784 36.7157L3.56784 36.7157L4.464 36.272ZM2.352 19.04L1.35857 18.9248L1.35726 18.9376L2.352 19.04ZM3.84 12.944L2.91367 12.5672L2.91042 12.5754L3.84 12.944ZM6.912 8.336L6.24199 7.59355L6.23296 7.6019L6.912 8.336ZM15.648 7.424L15.1691 8.30189L15.1795 8.30756L15.19 8.31297L15.648 7.424ZM18.336 9.68L17.5424 10.2884L17.5474 10.295L17.5525 10.3014L18.336 9.68ZM20.112 12.944L19.1708 13.2819L19.1746 13.2925L19.1787 13.303L20.112 12.944ZM21.84 21.2L20.8422 21.2665L20.8422 21.2665L21.84 21.2ZM21.36 30.368L20.3755 30.1927L21.36 30.368ZM19.488 36.272L18.6008 35.8106L18.5971 35.8177L18.5936 35.8248L19.488 36.272ZM16.464 39.92L15.8993 39.0947L15.892 39.0997L15.8848 39.1048L16.464 39.92ZM9.888 12.464L10.5077 13.2489L10.5127 13.2449L9.888 12.464ZM8.304 14.816L9.22463 15.2066L9.22868 15.1967L8.304 14.816ZM7.248 18.992L6.2588 18.8454L6.25747 18.8544L6.2563 18.8634L7.248 18.992ZM7.248 28.832L6.2563 28.9606L6.25747 28.9696L6.2588 28.9785L7.248 28.832ZM8.304 33.056L7.37927 33.4368L7.38342 33.4465L8.304 33.056ZM9.888 35.408L9.24387 36.1729L9.26544 36.1911L9.288 36.208L9.888 35.408ZM14.016 35.408L14.6357 36.1929L14.6407 36.1889L14.016 35.408ZM15.648 33.056L16.5686 33.4466L16.5727 33.4367L15.648 33.056ZM16.656 28.832L15.6668 28.6855L15.6655 28.6944L15.6643 28.7034L16.656 28.832ZM16.656 18.992L15.6643 19.1206L15.6655 19.1296L15.6668 19.1385L16.656 18.992ZM15.648 14.816L14.7233 15.1968L14.7274 15.2065L15.648 14.816ZM14.016 12.464L13.3719 13.2289L13.3934 13.2471L13.416 13.264L14.016 12.464ZM12.048 40.216C10.503 40.216 9.21051 39.8466 8.13011 39.1423C7.04556 38.4353 6.11413 37.351 5.36016 35.8283L3.56784 36.7157C4.44587 38.489 5.59444 39.8767 7.03789 40.8177C8.48549 41.7614 10.169 42.216 12.048 42.216V40.216ZM5.36016 35.8283C3.81599 32.7097 3.016 28.7451 3.016 23.888H1.016C1.016 28.9509 1.84801 33.2423 3.56784 36.7157L5.36016 35.8283ZM3.016 23.888C3.016 22.8859 3.12337 21.3123 3.34674 19.1424L1.35726 18.9376C1.13263 21.1197 1.016 22.7781 1.016 23.888H3.016ZM3.34535 19.1552C3.59239 17.0244 4.06924 15.0787 4.76958 13.3126L2.91042 12.5754C2.13876 14.5213 1.62361 16.6396 1.35865 18.9248L3.34535 19.1552ZM4.7663 13.3208C5.48833 11.5458 6.43536 10.1391 7.59104 9.0701L6.23296 7.6019C4.82864 8.90089 3.72767 10.5662 2.9137 12.5672L4.7663 13.3208ZM7.58197 9.07839C8.67561 8.09144 10.1326 7.56 12.048 7.56V5.56C9.73945 5.56 7.77239 6.21255 6.24204 7.59361L7.58197 9.07839ZM12.048 7.56C13.2447 7.56 14.2766 7.81507 15.1691 8.30189L16.1269 6.5461C14.9074 5.88093 13.5393 5.56 12.048 5.56V7.56ZM15.19 8.31297C16.1124 8.78811 16.8945 9.44335 17.5424 10.2884L19.1296 9.07157C18.3055 7.99665 17.2956 7.14789 16.106 6.53502L15.19 8.31297ZM17.5525 10.3014C18.2133 11.1346 18.7552 12.1242 19.1708 13.2819L21.0532 12.6061C20.5728 11.2678 19.9307 10.0814 19.1195 9.0586L17.5525 10.3014ZM19.1787 13.303C19.6374 14.4958 20.0065 15.7705 20.2843 17.1284L22.2437 16.7276C21.9455 15.2695 21.5466 13.8882 21.0453 12.585L19.1787 13.303ZM20.2843 17.1284C20.5632 18.492 20.7492 19.8713 20.8422 21.2665L22.8378 21.1335C22.7388 19.6487 22.5408 18.18 22.2437 16.7276L20.2843 17.1284ZM20.8422 21.2665C20.9391 22.7195 20.984 23.577 20.984 23.888H22.984C22.984 23.495 22.9329 22.5605 22.8378 21.1335L20.8422 21.2665ZM20.984 23.888C20.984 25.8031 20.7831 27.9037 20.3755 30.1927L22.3445 30.5433C22.7689 28.1603 22.984 25.9409 22.984 23.888H20.984ZM20.3755 30.1927C19.972 32.4585 19.374 34.3237 18.6008 35.8106L20.3752 36.7334C21.266 35.0203 21.916 32.9495 22.3445 30.5433L20.3755 30.1927ZM18.5936 35.8248C17.8534 37.3051 16.948 38.3772 15.8993 39.0947L17.0287 40.7453C18.412 39.7988 19.5226 38.4389 20.3824 36.7192L18.5936 35.8248ZM15.8848 39.1048C14.8637 39.8303 13.6024 40.216 12.048 40.216V42.216C13.9496 42.216 15.6323 41.7377 17.0432 40.7352L15.8848 39.1048ZM12 10.696C10.9891 10.696 10.0678 11.0395 9.2633 11.6831L10.5127 13.2449C10.9882 12.8645 11.4749 12.696 12 12.696V10.696ZM9.26836 11.6791C8.47345 12.3067 7.86149 13.2643 7.37932 14.4352L9.22868 15.1967C9.64251 14.1917 10.0865 13.5813 10.5076 13.2489L9.26836 11.6791ZM7.38342 14.4254C6.88983 15.5889 6.52147 17.0724 6.2588 18.8454L8.2372 19.1385C8.48653 17.4556 8.82217 16.1551 9.22458 15.2065L7.38342 14.4254ZM6.2563 18.8634C6.02749 20.6285 5.912 22.3038 5.912 23.888H7.912C7.912 22.4002 8.02051 20.8115 8.2397 19.1206L6.2563 18.8634ZM5.912 23.888C5.912 25.5034 6.02737 27.1946 6.2563 28.9606L8.2397 28.7034C8.02063 27.0134 7.912 25.4086 7.912 23.888H5.912ZM6.2588 28.9785C6.52155 30.7521 6.88936 32.2468 7.37932 33.4367L9.22868 32.6752C8.82264 31.6892 8.48645 30.3679 8.2372 28.6855L6.2588 28.9785ZM7.38342 33.4465C7.86753 34.5877 8.47421 35.5248 9.24387 36.1729L10.5321 34.6431C10.0858 34.2672 9.63647 33.6363 9.22458 32.6654L7.38342 33.4465ZM9.288 36.208C10.0934 36.812 11.0062 37.128 12 37.128V35.128C11.4578 35.128 10.9626 34.964 10.488 34.608L9.288 36.208ZM12 37.128C12.9732 37.128 13.8611 36.8044 14.6356 36.1929L13.3964 34.6231C12.9549 34.9716 12.4988 35.128 12 35.128V37.128ZM14.6407 36.1889C15.4515 35.5402 16.0803 34.5975 16.5686 33.4465L14.7274 32.6654C14.3197 33.6265 13.8605 34.2518 13.3913 34.6271L14.6407 36.1889ZM16.5727 33.4367C17.0657 32.2393 17.4173 30.7379 17.6477 28.9606L15.6643 28.7034C15.4467 30.3821 15.1263 31.6967 14.7233 32.6752L16.5727 33.4367ZM17.6452 28.9785C17.9076 27.2074 18.04 25.5102 18.04 23.888H16.04C16.04 25.4018 15.9164 27.0006 15.6668 28.6855L17.6452 28.9785ZM18.04 23.888C18.04 22.2968 17.9074 20.6155 17.6452 18.8454L15.6668 19.1385C15.9166 20.8245 16.04 22.4072 16.04 23.888H18.04ZM17.6477 18.8634C17.4174 17.0868 17.0654 15.5965 16.5686 14.4254L14.7274 15.2065C15.1266 16.1475 15.4466 17.4412 15.6643 19.1206L17.6477 18.8634ZM16.5727 14.4352C16.0863 13.2541 15.4524 12.2913 14.616 11.664L13.416 13.264C13.8596 13.5967 14.3137 14.2019 14.7233 15.1967L16.5727 14.4352ZM14.6601 11.6991C13.8874 11.0483 12.9912 10.696 12 10.696V12.696C12.4808 12.696 12.9286 12.8557 13.3719 13.2289L14.6601 11.6991ZM41.568 40.256L40.968 41.056L40.968 41.056L41.568 40.256ZM41.088 39.632L40.1371 39.9415L40.1722 40.0493L40.2305 40.1465L41.088 39.632ZM34.464 19.28L33.4953 19.5284L33.5032 19.5592L33.5131 19.5895L34.464 19.28ZM33.504 15.536L34.4727 15.2876L32.504 15.536H33.504ZM33.36 40.256L32.6529 39.5489L32.6529 39.5489L33.36 40.256ZM28.896 40.256L29.496 39.456L29.496 39.456L28.896 40.256ZM28.896 7.28L29.496 8.08L29.5529 8.03736L29.6031 7.9871L28.896 7.28ZM34.368 7.232L33.768 8.032L33.8401 8.0861L33.9208 8.12643L34.368 7.232ZM34.848 7.856L35.7989 7.54651L35.7702 7.45845L35.7259 7.37715L34.848 7.856ZM41.472 28.208L42.4407 27.9596L42.4328 27.9288L42.4229 27.8985L41.472 28.208ZM42.432 31.952L41.4633 32.2004L43.432 31.952H42.432ZM42.576 7.232L41.8689 6.52489L41.8689 6.5249L42.576 7.232ZM47.04 7.232L46.2079 7.7867L46.2629 7.86908L46.3329 7.9391L47.04 7.232ZM46.992 40.208L46.392 39.408L46.2777 39.4937L46.192 39.608L46.992 40.208ZM42.144 39.4C42.1109 39.4 42.0868 39.3984 42.0705 39.3967C42.0542 39.3949 42.0482 39.3933 42.0505 39.3939C42.0541 39.3948 42.1033 39.4075 42.168 39.456L40.968 41.056C41.3454 41.339 41.7918 41.4 42.144 41.4V39.4ZM42.168 39.456C42.2079 39.4859 42.1998 39.49 42.1446 39.4183C42.0955 39.3545 42.0292 39.2571 41.9455 39.1175L40.2305 40.1465C40.4236 40.4683 40.6686 40.8314 40.968 41.056L42.168 39.456ZM42.0389 39.3225L35.4149 18.9705L33.5131 19.5895L40.1371 39.9415L42.0389 39.3225ZM35.4327 19.0316L34.4727 15.2876L32.5353 15.7844L33.4953 19.5284L35.4327 19.0316ZM32.504 15.536V19.04H34.504V15.536H32.504ZM32.504 19.04V39.632H34.504V19.04H32.504ZM32.504 39.632C32.504 39.6877 32.5019 39.73 32.4991 39.7605C32.4963 39.7916 32.4933 39.8044 32.4936 39.8031C32.4937 39.8028 32.4995 39.7766 32.5193 39.7349C32.5391 39.6931 32.5791 39.6227 32.6529 39.5489L34.0671 40.9631C34.3032 40.7271 34.3983 40.4438 34.4424 40.2529C34.4896 40.0484 34.504 39.8341 34.504 39.632H32.504ZM32.6529 39.5489C32.7267 39.4751 32.7971 39.4351 32.8389 39.4153C32.8806 39.3955 32.9068 39.3897 32.9071 39.3896C32.9084 39.3893 32.8956 39.3923 32.8645 39.3951C32.834 39.3979 32.7917 39.4 32.736 39.4V41.4C32.9381 41.4 33.1524 41.3856 33.3569 41.3384C33.5478 41.2943 33.8311 41.1992 34.0671 40.9631L32.6529 39.5489ZM32.736 39.4H29.472V41.4H32.736V39.4ZM29.472 39.4C29.4389 39.4 29.4148 39.3984 29.3985 39.3967C29.3822 39.3949 29.3762 39.3933 29.3785 39.3939C29.3821 39.3948 29.4313 39.4075 29.496 39.456L28.296 41.056C28.6734 41.339 29.1198 41.4 29.472 41.4V39.4ZM29.496 39.456C29.689 39.6007 29.773 39.7745 29.7932 39.8163C29.8252 39.8825 29.8423 39.9371 29.8495 39.9619C29.8646 40.0134 29.8705 40.0509 29.8712 40.0552C29.8736 40.0699 29.8723 40.066 29.8692 40.0294C29.8636 39.9622 29.857 39.8486 29.8502 39.68C29.8367 39.3467 29.8238 38.8444 29.8118 38.1683C29.788 36.8184 29.768 34.8011 29.752 32.114C29.72 26.7411 29.704 18.7035 29.704 8H27.704C27.704 18.7045 27.72 26.7469 27.752 32.126C27.768 34.8149 27.788 36.8416 27.8122 38.2037C27.8242 38.8836 27.8373 39.4043 27.8518 39.761C27.859 39.9374 27.8669 40.0856 27.8763 40.1969C27.8807 40.2495 27.887 40.3141 27.8972 40.3764C27.9017 40.4044 27.9115 40.4606 27.9306 40.5255C27.9398 40.5569 27.9588 40.617 27.9928 40.6873C28.015 40.7332 28.101 40.9098 28.296 41.056L29.496 39.456ZM29.704 8C29.704 7.93084 29.7069 7.87862 29.7108 7.84103C29.7147 7.80261 29.7188 7.7874 29.7182 7.78966C29.7179 7.79077 29.7092 7.82453 29.6802 7.87514C29.6504 7.9274 29.5936 8.00682 29.496 8.08L28.296 6.48C27.9773 6.71902 27.8455 7.0505 27.7858 7.27434C27.7227 7.51098 27.704 7.76283 27.704 8H29.704ZM29.6031 7.9871C29.5535 8.03666 29.5068 8.0663 29.4756 8.08258C29.4451 8.09845 29.4273 8.10287 29.4297 8.10223C29.4319 8.10165 29.4476 8.09776 29.4805 8.0942C29.5131 8.09068 29.5576 8.088 29.616 8.088V6.088C29.2192 6.088 28.6174 6.14441 28.1889 6.57289L29.6031 7.9871ZM29.616 8.088H33.792V6.088H29.616V8.088ZM33.792 8.088C33.8251 8.088 33.8492 8.08957 33.8655 8.09131C33.8818 8.09305 33.8878 8.09473 33.8855 8.09414C33.8819 8.09324 33.8327 8.08049 33.768 8.032L34.968 6.432C34.5906 6.14895 34.1442 6.088 33.792 6.088V8.088ZM33.9208 8.12643C33.8389 8.08546 33.7934 8.04346 33.7834 8.03401C33.771 8.0223 33.7739 8.02298 33.7914 8.04571C33.8276 8.09285 33.8875 8.18341 33.9701 8.33485L35.7259 7.37715C35.6165 7.17658 35.5004 6.98715 35.3766 6.82629C35.269 6.68634 35.0847 6.47234 34.8152 6.33757L33.9208 8.12643ZM33.8971 8.16549L40.5211 28.5175L42.4229 27.8985L35.7989 7.54651L33.8971 8.16549ZM40.5033 28.4564L41.4633 32.2004L43.4007 31.7036L42.4407 27.9596L40.5033 28.4564ZM43.432 31.952V28.448H41.432V31.952H43.432ZM43.432 28.448V7.856H41.432V28.448H43.432ZM43.432 7.856C43.432 7.80028 43.4341 7.75804 43.4369 7.72753C43.4397 7.69643 43.4427 7.68356 43.4424 7.68486C43.4423 7.68518 43.4365 7.71145 43.4167 7.75308C43.3969 7.79487 43.3569 7.86532 43.2831 7.9391L41.8689 6.5249C41.6328 6.76094 41.5377 7.04415 41.4936 7.23514C41.4464 7.43965 41.432 7.65388 41.432 7.856H43.432ZM43.2831 7.93911C43.2093 8.01289 43.1389 8.05294 43.0971 8.07274C43.0555 8.09246 43.0292 8.09832 43.0289 8.09839C43.0276 8.09869 43.0404 8.09572 43.0715 8.09289C43.102 8.09012 43.1443 8.088 43.2 8.088V6.088C42.9979 6.088 42.7836 6.10241 42.5791 6.14961C42.3882 6.19368 42.1049 6.28885 41.8689 6.52489L43.2831 7.93911ZM43.2 8.088H46.464V6.088H43.2V8.088ZM46.464 8.088C46.5858 8.088 46.6221 8.09831 46.6055 8.09414C46.5948 8.09147 46.5452 8.0785 46.4777 8.04057C46.4089 8.00183 46.2999 7.92461 46.2079 7.7867L47.8721 6.6773C47.6323 6.31763 47.2689 6.19845 47.0905 6.15386C46.8819 6.10169 46.6622 6.088 46.464 6.088V8.088ZM46.3329 7.9391C46.2591 7.86532 46.2191 7.79487 46.1993 7.75308C46.1795 7.71145 46.1737 7.68518 46.1736 7.68486C46.1733 7.68356 46.1763 7.69643 46.1791 7.72753C46.1819 7.75804 46.184 7.80028 46.184 7.856H48.184C48.184 7.65388 48.1696 7.43965 48.1224 7.23514C48.0783 7.04415 47.9832 6.76094 47.7471 6.5249L46.3329 7.9391ZM46.184 7.856V39.488H48.184V7.856H46.184ZM46.184 39.488C46.184 39.5572 46.1811 39.6094 46.1772 39.647C46.1733 39.6854 46.1692 39.7006 46.1698 39.6983C46.1701 39.6972 46.1788 39.6635 46.2078 39.6129C46.2376 39.5606 46.2944 39.4812 46.392 39.408L47.592 41.008C47.9107 40.769 48.0425 40.4375 48.1022 40.2137C48.1653 39.977 48.184 39.7252 48.184 39.488H46.184ZM46.192 39.608C46.3227 39.4338 46.4716 39.3921 46.4773 39.3905C46.4862 39.3879 46.4788 39.3909 46.4496 39.3941C46.421 39.3973 46.3786 39.4 46.32 39.4V41.4C46.5467 41.4 46.7923 41.3805 47.0267 41.3135C47.2564 41.2479 47.5653 41.1102 47.792 40.808L46.192 39.608ZM46.32 39.4H42.144V41.4H46.32V39.4ZM55.68 40.208L54.9729 40.9151L54.9729 40.9151L55.68 40.208ZM55.68 7.28L54.9729 6.57289L54.9729 6.57289L55.68 7.28ZM60.768 7.28L59.968 7.88L60.0537 7.99428L60.168 8.08L60.768 7.28ZM60.96 35.36H59.96V36.36H60.96V35.36ZM72.864 40.208L72.264 39.408L72.1497 39.4937L72.064 39.608L72.864 40.208ZM56.112 39.4C56.1697 39.4 56.2323 39.4125 56.2901 39.4382C56.3457 39.4629 56.3771 39.4909 56.3871 39.5009L54.9729 40.9151C55.2616 41.2038 55.6511 41.4 56.112 41.4V39.4ZM56.3871 39.5009C56.4408 39.5546 56.4826 39.6202 56.5083 39.6889C56.5329 39.7545 56.536 39.8041 56.536 39.824H54.536C54.536 40.1983 54.6562 40.5984 54.9729 40.9151L56.3871 39.5009ZM56.536 39.824V7.664H54.536V39.824H56.536ZM56.536 7.664C56.536 7.68386 56.5329 7.73349 56.5083 7.79912C56.4826 7.86783 56.4408 7.93344 56.3871 7.9871L54.9729 6.57289C54.6562 6.88963 54.536 7.28974 54.536 7.664H56.536ZM56.3871 7.9871C56.3771 7.99714 56.3457 8.02513 56.2901 8.04981C56.2323 8.07553 56.1697 8.088 56.112 8.088V6.088C55.6511 6.088 55.2616 6.2842 54.9729 6.57289L56.3871 7.9871ZM56.112 8.088H60.384V6.088H56.112V8.088ZM60.384 8.088C60.3273 8.088 60.2433 8.07569 60.1528 8.03042C60.0623 7.98516 60.002 7.92537 59.968 7.88L61.568 6.68C61.2831 6.30019 60.8588 6.088 60.384 6.088V8.088ZM60.168 8.08C60.1226 8.04596 60.0628 7.98574 60.0176 7.89521C59.9723 7.80469 59.96 7.72072 59.96 7.664H61.96C61.96 7.18924 61.7478 6.76485 61.368 6.48L60.168 8.08ZM59.96 7.664V35.36H61.96V7.664H59.96ZM60.96 36.36H72.48V34.36H60.96V36.36ZM72.48 36.36C72.4964 36.36 72.3308 36.3607 72.1772 36.1943C72.0375 36.043 72.056 35.9112 72.056 35.984H74.056C74.056 35.6408 73.9785 35.197 73.6468 34.8377C73.3012 34.4633 72.8476 34.36 72.48 34.36V36.36ZM72.056 35.984V39.824H74.056V35.984H72.056ZM72.056 39.824C72.056 39.7673 72.0683 39.6833 72.1136 39.5928C72.1588 39.5023 72.2186 39.442 72.264 39.408L73.464 41.008C73.8438 40.7231 74.056 40.2988 74.056 39.824H72.056ZM72.064 39.608C72.098 39.5626 72.1583 39.5028 72.2488 39.4576C72.3393 39.4123 72.4233 39.4 72.48 39.4V41.4C72.9548 41.4 73.3791 41.1878 73.664 40.808L72.064 39.608ZM72.48 39.4H56.112V41.4H72.48V39.4ZM81.552 40.208L80.8449 40.9151L80.8449 40.9151L81.552 40.208ZM81.552 35.552L80.8449 34.8449L80.8449 34.8449L81.552 35.552ZM87.024 35.36V36.36H88.024V35.36H87.024ZM87.024 12.128H88.024V11.128H87.024V12.128ZM82.272 11.984L81.472 12.584L81.5577 12.6983L81.672 12.784L82.272 11.984ZM82.272 7.28L81.5649 6.57289L81.5649 6.57289L82.272 7.28ZM97.152 7.28L96.352 7.88L96.4377 7.99428L96.552 8.08L97.152 7.28ZM92.448 12.128V11.128H91.448V12.128H92.448ZM92.448 35.36H91.448V36.36H92.448V35.36ZM97.872 35.552L97.072 36.152L97.1577 36.2663L97.272 36.352L97.872 35.552ZM81.984 39.4C82.0417 39.4 82.1043 39.4125 82.1621 39.4382C82.2177 39.4629 82.2491 39.4909 82.2591 39.5009L80.8449 40.9151C81.1336 41.2038 81.5231 41.4 81.984 41.4V39.4ZM82.2591 39.5009C82.4168 39.6586 82.408 39.8139 82.408 39.776H80.408C80.408 40.1221 80.4952 40.5654 80.8449 40.9151L82.2591 39.5009ZM82.408 39.776V35.936H80.408V39.776H82.408ZM82.408 35.936C82.408 35.9559 82.4049 36.0055 82.3803 36.0711C82.3546 36.1398 82.3128 36.2054 82.2591 36.2591L80.8449 34.8449C80.5282 35.1616 80.408 35.5617 80.408 35.936H82.408ZM82.2591 36.2591C82.2491 36.2691 82.2177 36.2971 82.1621 36.3218C82.1043 36.3475 82.0417 36.36 81.984 36.36V34.36C81.5231 34.36 81.1336 34.5562 80.8449 34.8449L82.2591 36.2591ZM81.984 36.36H87.024V34.36H81.984V36.36ZM88.024 35.36V12.128H86.024V35.36H88.024ZM87.024 11.128H82.704V13.128H87.024V11.128ZM82.704 11.128C82.7256 11.128 82.7569 11.1315 82.7922 11.1433C82.8276 11.1551 82.8547 11.171 82.872 11.184L81.672 12.784C81.9731 13.0098 82.3276 13.128 82.704 13.128V11.128ZM83.072 11.384C83.0977 11.4182 83.1135 11.453 83.1218 11.4807C83.1296 11.5066 83.128 11.5169 83.128 11.504H81.128C81.128 11.8679 81.2218 12.2504 81.472 12.584L83.072 11.384ZM83.128 11.504V7.664H81.128V11.504H83.128ZM83.128 7.664C83.128 7.68386 83.1249 7.73349 83.1003 7.79912C83.0746 7.86783 83.0328 7.93344 82.9791 7.9871L81.5649 6.57289C81.2482 6.88963 81.128 7.28974 81.128 7.664H83.128ZM82.9791 7.9871C82.9691 7.99714 82.9377 8.02513 82.8821 8.04981C82.8243 8.07553 82.7617 8.088 82.704 8.088V6.088C82.2431 6.088 81.8536 6.2842 81.5649 6.57289L82.9791 7.9871ZM82.704 8.088H96.768V6.088H82.704V8.088ZM96.768 8.088C96.7113 8.088 96.6273 8.07569 96.5368 8.03042C96.4463 7.98516 96.386 7.92537 96.352 7.88L97.952 6.68C97.6672 6.30019 97.2428 6.088 96.768 6.088V8.088ZM96.552 8.08C96.5066 8.04596 96.4468 7.98574 96.4016 7.89521C96.3563 7.80469 96.344 7.72072 96.344 7.664H98.344C98.344 7.18924 98.1318 6.76485 97.752 6.48L96.552 8.08ZM96.344 7.664V11.504H98.344V7.664H96.344ZM96.344 11.504C96.344 11.5768 96.3255 11.445 96.4652 11.2937C96.6188 11.1273 96.7844 11.128 96.768 11.128V13.128C97.1356 13.128 97.5892 13.0247 97.9348 12.6503C98.2665 12.291 98.344 11.8472 98.344 11.504H96.344ZM96.768 11.128H92.448V13.128H96.768V11.128ZM91.448 12.128V35.36H93.448V12.128H91.448ZM92.448 36.36H97.488V34.36H92.448V36.36ZM97.488 36.36C97.4313 36.36 97.3473 36.3477 97.2568 36.3024C97.1663 36.2572 97.106 36.1974 97.072 36.152L98.672 34.952C98.3871 34.5722 97.9628 34.36 97.488 34.36V36.36ZM97.272 36.352C97.2266 36.318 97.1668 36.2577 97.1216 36.1672C97.0763 36.0767 97.064 35.9927 97.064 35.936H99.064C99.064 35.4612 98.8518 35.0369 98.472 34.752L97.272 36.352ZM97.064 35.936V39.776H99.064V35.936H97.064ZM97.064 39.776C97.064 39.8488 97.0455 39.717 97.1852 39.5657C97.3388 39.3993 97.5044 39.4 97.488 39.4V41.4C97.8556 41.4 98.3092 41.2967 98.6548 40.9223C98.9865 40.563 99.064 40.1192 99.064 39.776H97.064ZM97.488 39.4H81.984V41.4H97.488V39.4ZM119.328 40.256L118.728 41.056L118.728 41.056L119.328 40.256ZM118.848 39.632L117.897 39.9415L117.932 40.0493L117.991 40.1465L118.848 39.632ZM112.224 19.28L111.255 19.5284L111.263 19.5592L111.273 19.5895L112.224 19.28ZM111.264 15.536L112.233 15.2876L110.264 15.536H111.264ZM111.12 40.256L110.413 39.5489L110.413 39.5489L111.12 40.256ZM106.656 40.256L107.256 39.456L107.256 39.456L106.656 40.256ZM106.656 7.28L107.256 8.08L107.313 8.03736L107.363 7.9871L106.656 7.28ZM112.128 7.232L111.528 8.032L111.6 8.0861L111.681 8.12643L112.128 7.232ZM112.608 7.856L113.559 7.54651L113.53 7.45845L113.486 7.37715L112.608 7.856ZM119.232 28.208L120.201 27.9596L120.193 27.9288L120.183 27.8985L119.232 28.208ZM120.192 31.952L119.223 32.2004L121.192 31.952H120.192ZM120.336 7.232L119.629 6.52489L119.629 6.5249L120.336 7.232ZM124.8 7.232L123.968 7.7867L124.023 7.86908L124.093 7.9391L124.8 7.232ZM124.752 40.208L124.152 39.408L124.038 39.4937L123.952 39.608L124.752 40.208ZM119.904 39.4C119.871 39.4 119.847 39.3984 119.831 39.3967C119.814 39.3949 119.808 39.3933 119.811 39.3939C119.814 39.3948 119.863 39.4075 119.928 39.456L118.728 41.056C119.105 41.339 119.552 41.4 119.904 41.4V39.4ZM119.928 39.456C119.968 39.4859 119.96 39.49 119.905 39.4183C119.856 39.3545 119.789 39.2571 119.705 39.1175L117.991 40.1465C118.184 40.4683 118.429 40.8314 118.728 41.056L119.928 39.456ZM119.799 39.3225L113.175 18.9705L111.273 19.5895L117.897 39.9415L119.799 39.3225ZM113.193 19.0316L112.233 15.2876L110.295 15.7844L111.255 19.5284L113.193 19.0316ZM110.264 15.536V19.04H112.264V15.536H110.264ZM110.264 19.04V39.632H112.264V19.04H110.264ZM110.264 39.632C110.264 39.6877 110.262 39.73 110.259 39.7605C110.256 39.7916 110.253 39.8044 110.254 39.8031C110.254 39.8028 110.26 39.7766 110.279 39.7349C110.299 39.6931 110.339 39.6227 110.413 39.5489L111.827 40.9631C112.063 40.7271 112.158 40.4438 112.202 40.2529C112.25 40.0484 112.264 39.8341 112.264 39.632H110.264ZM110.413 39.5489C110.487 39.4751 110.557 39.4351 110.599 39.4153C110.641 39.3955 110.667 39.3897 110.667 39.3896C110.668 39.3893 110.656 39.3923 110.624 39.3951C110.594 39.3979 110.552 39.4 110.496 39.4V41.4C110.698 41.4 110.912 41.3856 111.117 41.3384C111.308 41.2943 111.591 41.1992 111.827 40.9631L110.413 39.5489ZM110.496 39.4H107.232V41.4H110.496V39.4ZM107.232 39.4C107.199 39.4 107.175 39.3984 107.159 39.3967C107.142 39.3949 107.136 39.3933 107.139 39.3939C107.142 39.3948 107.191 39.4075 107.256 39.456L106.056 41.056C106.433 41.339 106.88 41.4 107.232 41.4V39.4ZM107.256 39.456C107.449 39.6007 107.533 39.7745 107.553 39.8163C107.585 39.8825 107.602 39.9371 107.61 39.9619C107.625 40.0134 107.631 40.0509 107.631 40.0552C107.634 40.0699 107.632 40.066 107.629 40.0294C107.624 39.9622 107.617 39.8486 107.61 39.68C107.597 39.3467 107.584 38.8444 107.572 38.1683C107.548 36.8184 107.528 34.8011 107.512 32.114C107.48 26.7411 107.464 18.7035 107.464 8H105.464C105.464 18.7045 105.48 26.7469 105.512 32.126C105.528 34.8149 105.548 36.8416 105.572 38.2037C105.584 38.8836 105.597 39.4043 105.612 39.761C105.619 39.9374 105.627 40.0856 105.636 40.1969C105.641 40.2495 105.647 40.3141 105.657 40.3764C105.662 40.4044 105.672 40.4606 105.691 40.5255C105.7 40.5569 105.719 40.617 105.753 40.6873C105.775 40.7332 105.861 40.9098 106.056 41.056L107.256 39.456ZM107.464 8C107.464 7.93084 107.467 7.87862 107.471 7.84103C107.475 7.80261 107.479 7.7874 107.478 7.78966C107.478 7.79077 107.469 7.82453 107.44 7.87514C107.41 7.9274 107.354 8.00682 107.256 8.08L106.056 6.48C105.737 6.71902 105.605 7.0505 105.546 7.27434C105.483 7.51098 105.464 7.76283 105.464 8H107.464ZM107.363 7.9871C107.314 8.03666 107.267 8.0663 107.236 8.08258C107.205 8.09845 107.187 8.10287 107.19 8.10223C107.192 8.10165 107.208 8.09776 107.24 8.0942C107.273 8.09068 107.318 8.088 107.376 8.088V6.088C106.979 6.088 106.377 6.14441 105.949 6.57289L107.363 7.9871ZM107.376 8.088H111.552V6.088H107.376V8.088ZM111.552 8.088C111.585 8.088 111.609 8.08957 111.625 8.09131C111.642 8.09305 111.648 8.09473 111.645 8.09414C111.642 8.09324 111.593 8.08049 111.528 8.032L112.728 6.432C112.351 6.14895 111.904 6.088 111.552 6.088V8.088ZM111.681 8.12643C111.599 8.08546 111.553 8.04346 111.543 8.03401C111.531 8.0223 111.534 8.02298 111.551 8.04571C111.588 8.09285 111.648 8.18341 111.73 8.33485L113.486 7.37715C113.376 7.17658 113.26 6.98715 113.137 6.82629C113.029 6.68634 112.845 6.47234 112.575 6.33757L111.681 8.12643ZM111.657 8.16549L118.281 28.5175L120.183 27.8985L113.559 7.54651L111.657 8.16549ZM118.263 28.4564L119.223 32.2004L121.161 31.7036L120.201 27.9596L118.263 28.4564ZM121.192 31.952V28.448H119.192V31.952H121.192ZM121.192 28.448V7.856H119.192V28.448H121.192ZM121.192 7.856C121.192 7.80028 121.194 7.75804 121.197 7.72753C121.2 7.69643 121.203 7.68356 121.202 7.68486C121.202 7.68518 121.196 7.71145 121.177 7.75308C121.157 7.79487 121.117 7.86532 121.043 7.9391L119.629 6.5249C119.393 6.76094 119.298 7.04415 119.254 7.23514C119.206 7.43965 119.192 7.65388 119.192 7.856H121.192ZM121.043 7.93911C120.969 8.01289 120.899 8.05294 120.857 8.07274C120.815 8.09246 120.789 8.09832 120.789 8.09839C120.788 8.09869 120.8 8.09572 120.832 8.09289C120.862 8.09012 120.904 8.088 120.96 8.088V6.088C120.758 6.088 120.544 6.10241 120.339 6.14961C120.148 6.19368 119.865 6.28885 119.629 6.52489L121.043 7.93911ZM120.96 8.088H124.224V6.088H120.96V8.088ZM124.224 8.088C124.346 8.088 124.382 8.09831 124.365 8.09414C124.355 8.09147 124.305 8.0785 124.238 8.04057C124.169 8.00183 124.06 7.92461 123.968 7.7867L125.632 6.6773C125.392 6.31763 125.029 6.19845 124.851 6.15386C124.642 6.10169 124.422 6.088 124.224 6.088V8.088ZM124.093 7.9391C124.019 7.86532 123.979 7.79487 123.959 7.75308C123.94 7.71145 123.934 7.68518 123.934 7.68486C123.933 7.68356 123.936 7.69643 123.939 7.72753C123.942 7.75804 123.944 7.80028 123.944 7.856H125.944C125.944 7.65388 125.93 7.43965 125.882 7.23514C125.838 7.04415 125.743 6.76094 125.507 6.5249L124.093 7.9391ZM123.944 7.856V39.488H125.944V7.856H123.944ZM123.944 39.488C123.944 39.5572 123.941 39.6094 123.937 39.647C123.933 39.6854 123.929 39.7006 123.93 39.6983C123.93 39.6972 123.939 39.6635 123.968 39.6129C123.998 39.5606 124.054 39.4812 124.152 39.408L125.352 41.008C125.671 40.769 125.803 40.4375 125.862 40.2137C125.925 39.977 125.944 39.7252 125.944 39.488H123.944ZM123.952 39.608C124.083 39.4338 124.232 39.3921 124.237 39.3905C124.246 39.3879 124.239 39.3909 124.21 39.3941C124.181 39.3973 124.139 39.4 124.08 39.4V41.4C124.307 41.4 124.552 41.3805 124.787 41.3135C125.016 41.2479 125.325 41.1102 125.552 40.808L123.952 39.608ZM124.08 39.4H119.904V41.4H124.08V39.4ZM133.056 40.208L133.763 39.5009L133.713 39.4506L133.656 39.408L133.056 40.208ZM133.008 7.28L132.301 6.57289L132.301 6.57289L133.008 7.28ZM150.24 7.28L149.346 7.72721L149.373 7.78289L149.408 7.8347L150.24 7.28ZM150.192 11.984L150.899 12.6911L150.949 12.6409L150.992 12.584L150.192 11.984ZM138.144 12.128V11.128H137.144V12.128H138.144ZM138.144 20.816H137.144V21.816H138.144V20.816ZM138.144 25.856V24.856H137.144V25.856H138.144ZM138.144 35.36H137.144V36.36H138.144V35.36ZM134.208 39.4C133.913 39.4 133.719 39.3847 133.604 39.3656C133.548 39.3562 133.535 39.3497 133.551 39.3557C133.559 39.3586 133.656 39.3938 133.763 39.5009L132.349 40.9151C132.654 41.2206 133.068 41.3038 133.276 41.3384C133.545 41.3833 133.863 41.4 134.208 41.4V39.4ZM133.656 39.408C133.756 39.4829 133.816 39.5619 133.849 39.6121C133.882 39.6628 133.898 39.7022 133.905 39.718C133.915 39.7461 133.909 39.7406 133.899 39.678C133.88 39.5547 133.864 39.3396 133.864 39.008H131.864C131.864 39.3804 131.88 39.7173 131.925 39.994C131.947 40.1314 131.981 40.2879 132.039 40.44C132.091 40.5732 132.205 40.8199 132.456 41.008L133.656 39.408ZM133.864 39.008V8.384H131.864V39.008H133.864ZM133.864 8.384C133.864 8.08111 133.876 7.87862 133.892 7.75734C133.9 7.69571 133.905 7.68235 133.9 7.6994C133.897 7.70912 133.887 7.74077 133.864 7.78462C133.843 7.82609 133.798 7.90438 133.715 7.9871L132.301 6.57289C132.104 6.76981 132.024 6.99802 131.99 7.1066C131.949 7.23965 131.924 7.37629 131.908 7.49866C131.876 7.74538 131.864 8.04689 131.864 8.384H133.864ZM133.715 7.9871C133.614 8.08847 133.522 8.1239 133.51 8.12857C133.492 8.13568 133.5 8.13008 133.551 8.12121C133.655 8.10321 133.835 8.088 134.112 8.088V6.088C133.781 6.088 133.473 6.10478 133.209 6.15079C132.998 6.18738 132.6 6.27388 132.301 6.57289L133.715 7.9871ZM134.112 8.088H149.616V6.088H134.112V8.088ZM149.616 8.088C149.746 8.088 149.773 8.10149 149.742 8.09178C149.719 8.08483 149.487 8.01008 149.346 7.72721L151.134 6.83279C150.929 6.42192 150.561 6.25116 150.33 6.18022C150.091 6.1065 149.838 6.088 149.616 6.088V8.088ZM149.408 7.8347C149.384 7.79909 149.368 7.76759 149.356 7.74338C149.345 7.71909 149.338 7.69943 149.333 7.68623C149.325 7.66113 149.324 7.65032 149.326 7.6604C149.327 7.66949 149.33 7.69002 149.332 7.72452C149.334 7.75857 149.336 7.80202 149.336 7.856H151.336C151.336 7.6804 151.327 7.50101 151.298 7.3316C151.273 7.17917 151.219 6.94525 151.072 6.7253L149.408 7.8347ZM149.336 7.856V11.312H151.336V7.856H149.336ZM149.336 11.312C149.336 11.3675 149.334 11.4118 149.331 11.4461C149.328 11.4807 149.324 11.5013 149.322 11.5105C149.32 11.52 149.321 11.5118 149.329 11.4914C149.338 11.4709 149.356 11.4315 149.392 11.384L150.992 12.584C151.295 12.1794 151.336 11.6674 151.336 11.312H149.336ZM149.485 11.2769C149.55 11.2123 149.612 11.174 149.655 11.1526C149.697 11.1315 149.726 11.1237 149.733 11.1219C149.744 11.1193 149.712 11.128 149.616 11.128V13.128C149.808 13.128 150.016 13.1127 150.219 13.0621C150.415 13.0131 150.677 12.913 150.899 12.6911L149.485 11.2769ZM149.616 11.128H138.144V13.128H149.616V11.128ZM137.144 12.128V20.816H139.144V12.128H137.144ZM138.144 21.816H148.992V19.816H138.144V21.816ZM148.992 21.816C149.026 21.816 149.013 21.8208 148.972 21.8062C148.925 21.7896 148.861 21.7544 148.802 21.6919C148.683 21.5648 148.712 21.4667 148.712 21.584H150.712C150.712 21.1893 150.621 20.7072 150.262 20.3241C149.891 19.9287 149.403 19.816 148.992 19.816V21.816ZM148.712 21.584V25.04H150.712V21.584H148.712ZM148.712 25.04C148.712 25.1865 148.677 25.1096 148.782 24.9904C148.837 24.9287 148.901 24.8895 148.954 24.8695C149.001 24.8518 149.02 24.856 148.992 24.856V26.856C149.421 26.856 149.916 26.7287 150.282 26.3136C150.627 25.9224 150.712 25.4375 150.712 25.04H148.712ZM148.992 24.856H138.144V26.856H148.992V24.856ZM137.144 25.856V35.36H139.144V25.856H137.144ZM138.144 36.36H150.192V34.36H138.144V36.36ZM150.192 36.36C150.205 36.36 150.171 36.3621 150.111 36.3379C150.045 36.3113 149.977 36.2641 149.924 36.1997C149.874 36.1394 149.86 36.0908 149.858 36.0837C149.856 36.079 149.864 36.1054 149.864 36.176H151.864C151.864 35.792 151.789 35.318 151.468 34.9283C151.116 34.5014 150.627 34.36 150.192 34.36V36.36ZM149.864 36.176V39.632H151.864V36.176H149.864ZM149.864 39.632C149.864 39.7642 149.832 39.6766 149.943 39.5495C150.001 39.4834 150.07 39.4403 150.13 39.4175C150.184 39.397 150.211 39.4 150.192 39.4V41.4C150.607 41.4 151.091 41.2751 151.449 40.8665C151.784 40.4834 151.864 40.0118 151.864 39.632H149.864ZM150.192 39.4H134.208V41.4H150.192V39.4ZM158.4 25.424L157.693 26.1311L157.743 26.1814L157.8 26.224L158.4 25.424ZM158.4 20.768L159 21.568L159.057 21.5254L159.107 21.4751L158.4 20.768ZM176.64 20.768L175.84 21.368L175.926 21.4823L176.04 21.568L176.64 20.768ZM176.64 25.424L175.933 24.7169L175.933 24.7169L176.64 25.424ZM158.832 24.568C158.854 24.568 158.885 24.5715 158.92 24.5833C158.956 24.5951 158.983 24.611 159 24.624L157.8 26.224C158.101 26.4498 158.456 26.568 158.832 26.568V24.568ZM159.107 24.7169C159.117 24.7269 159.145 24.7583 159.17 24.8139C159.196 24.8717 159.208 24.9343 159.208 24.992H157.208C157.208 25.4529 157.404 25.8424 157.693 26.1311L159.107 24.7169ZM159.208 24.992V21.152H157.208V24.992H159.208ZM159.208 21.152C159.208 21.2087 159.196 21.2927 159.15 21.3832C159.105 21.4737 159.045 21.534 159 21.568L157.8 19.968C157.42 20.2529 157.208 20.6772 157.208 21.152H159.208ZM159.107 21.4751C159.097 21.4851 159.066 21.5131 159.01 21.5378C158.952 21.5635 158.89 21.576 158.832 21.576V19.576C158.371 19.576 157.982 19.7722 157.693 20.0609L159.107 21.4751ZM158.832 21.576H176.208V19.576H158.832V21.576ZM176.208 21.576C176.194 21.576 176.134 21.5736 176.054 21.5378C175.967 21.4994 175.893 21.4383 175.84 21.368L177.44 20.168C177.116 19.7365 176.644 19.576 176.208 19.576V21.576ZM176.04 21.568C175.995 21.534 175.935 21.4737 175.89 21.3832C175.844 21.2927 175.832 21.2087 175.832 21.152H177.832C177.832 20.6772 177.62 20.2529 177.24 19.968L176.04 21.568ZM175.832 21.152V24.992H177.832V21.152H175.832ZM175.832 24.992C175.832 24.9343 175.844 24.8717 175.87 24.8139C175.895 24.7583 175.923 24.7269 175.933 24.7169L177.347 26.1311C177.636 25.8424 177.832 25.4529 177.832 24.992H175.832ZM175.933 24.7169C176.091 24.5592 176.246 24.568 176.208 24.568V26.568C176.554 26.568 176.997 26.4808 177.347 26.1311L175.933 24.7169ZM176.208 24.568H158.832V26.568H176.208V24.568Z" fill="#F1F1F1"/>
<path d="M202.96 38.192L203.653 38.9129L203.661 38.9052L202.96 38.192ZM199.792 40.256L199.382 39.344L199.373 39.348L199.792 40.256ZM196.288 41.216L196.229 40.2177L196.217 40.2184L196.205 40.2195L196.288 41.216ZM193.984 41.216L194.067 40.2195L194.047 40.2178L194.027 40.2169L193.984 41.216ZM191.584 40.928L191.402 41.9113H191.402L191.584 40.928ZM189.232 40.448L189 41.4209L189.01 41.4231L189.232 40.448ZM187.696 39.968L188.11 39.0576L188.089 39.0481L188.067 39.0395L187.696 39.968ZM186.832 39.536L187.539 38.8289H187.539L186.832 39.536ZM186.784 38.864L187.768 39.0429L187.775 39.0041L187.779 38.9649L186.784 38.864ZM187.12 35.552L186.158 35.2773L186.134 35.3627L186.125 35.4511L187.12 35.552ZM187.36 35.12L186.913 34.2256L186.857 34.2534L186.805 34.2879L187.36 35.12ZM188.128 35.264L187.743 36.1871L187.75 36.1898L187.757 36.1925L188.128 35.264ZM189.664 35.792L189.361 36.745L189.373 36.7487L189.664 35.792ZM191.968 36.32L191.81 37.3075L191.816 37.3084L191.968 36.32ZM194.272 36.56L194.317 35.561L194.272 36.56ZM196.384 36.368L196.197 35.3857L196.18 35.389L196.162 35.3929L196.384 36.368ZM199.36 34.784L200.141 35.4087H200.141L199.36 34.784ZM199.12 28.928L198.363 29.5809L198.368 29.5875L198.374 29.594L199.12 28.928ZM196.384 26.48L196.951 25.6559L196.943 25.6509L196.384 26.48ZM192.4 23.792L191.827 24.6112L191.833 24.6161L191.841 24.6208L192.4 23.792ZM189.232 21.152L188.499 21.8325L188.505 21.8391L188.512 21.8456L189.232 21.152ZM187.36 18.464L186.441 18.8579L186.447 18.8716L186.453 18.8851L187.36 18.464ZM187.648 12.128L186.764 11.6601L186.764 11.6601L187.648 12.128ZM189.952 9.248L190.607 10.0037L190.614 9.99756L190.621 9.99129L189.952 9.248ZM193.12 7.28L192.766 6.34467L192.758 6.34799L193.12 7.28ZM200.848 6.944L200.64 7.92223L200.655 7.92526L200.669 7.92787L200.848 6.944ZM203.584 7.568L203.998 6.65763L203.933 6.62803L203.864 6.608L203.584 7.568ZM204.16 8L203.19 8.24253L203.232 8.41058L203.328 8.55471L204.16 8ZM204.208 8.528L205.191 8.71229L205.196 8.6823L205.2 8.65203L204.208 8.528ZM203.632 11.6L204.581 11.9162L204.602 11.8514L204.615 11.7843L203.632 11.6ZM203.248 12.224L202.623 11.4431L202.58 11.4777L202.541 11.5169L203.248 12.224ZM202.48 12.224L202.796 11.2753L202.737 11.2556L202.676 11.2434L202.48 12.224ZM200.992 11.888L200.694 12.8425L200.721 12.8511L200.749 12.8581L200.992 11.888ZM199.408 11.504L199.224 12.4869L199.234 12.4888L199.408 11.504ZM197.92 11.312L197.987 10.3142L197.987 10.3142L197.92 11.312ZM196.528 11.312L196.457 10.3145L196.426 10.3167L196.396 10.3208L196.528 11.312ZM193.264 12.8L192.528 12.1229L192.521 12.1311L192.513 12.1394L193.264 12.8ZM193.168 18.128L193.949 17.5033H193.949L193.168 18.128ZM196.48 20.864L197.031 20.0297L197.027 20.0267L196.48 20.864ZM203.824 26.48L203.075 27.1426L203.081 27.1499L203.088 27.1571L203.824 26.48ZM205.312 28.928L204.356 29.2221L204.363 29.2446L204.371 29.2667L205.312 28.928ZM202.267 37.4712C201.533 38.1767 200.579 38.8053 199.382 39.3441L200.202 41.1679C201.565 40.5547 202.723 39.8073 203.653 38.9128L202.267 37.4712ZM199.373 39.348C198.21 39.8848 197.165 40.1627 196.229 40.2177L196.347 42.2143C197.587 42.1413 198.878 41.7792 200.211 41.164L199.373 39.348ZM196.205 40.2195C195.492 40.2789 194.78 40.2789 194.067 40.2195L193.901 42.2125C194.724 42.2812 195.548 42.2812 196.371 42.2125L196.205 40.2195ZM194.027 40.2169C193.346 40.1873 192.593 40.0978 191.766 39.9447L191.402 41.9113C192.303 42.0782 193.15 42.1807 193.941 42.2151L194.027 40.2169ZM191.766 39.9447C190.913 39.7867 190.142 39.6293 189.454 39.4729L189.01 41.4231C189.73 41.5867 190.527 41.7493 191.402 41.9113L191.766 39.9447ZM189.464 39.4752C188.814 39.3204 188.375 39.178 188.11 39.0576L187.282 40.8784C187.721 41.078 188.306 41.2556 189 41.4208L189.464 39.4752ZM188.067 39.0395C187.84 38.9485 187.676 38.8761 187.567 38.8216C187.513 38.7944 187.483 38.7769 187.47 38.769C187.45 38.7563 187.486 38.7757 187.539 38.8289L186.125 40.2431C186.299 40.4172 186.528 40.5382 186.673 40.6104C186.852 40.6999 187.072 40.7955 187.325 40.8965L188.067 39.0395ZM187.539 38.8289C187.644 38.9341 187.695 39.0422 187.719 39.1096C187.742 39.1753 187.745 39.2192 187.745 39.2248C187.746 39.2323 187.745 39.2215 187.748 39.187C187.75 39.1537 187.756 39.1063 187.768 39.0429L185.8 38.6851C185.761 38.9011 185.734 39.1374 185.751 39.3672C185.765 39.5733 185.826 39.9442 186.125 40.2431L187.539 38.8289ZM187.779 38.9649L188.115 35.6529L186.125 35.4511L185.789 38.7631L187.779 38.9649ZM188.082 35.8267C188.1 35.7605 188.111 35.7458 188.102 35.7616C188.097 35.7712 188.082 35.7962 188.054 35.8289C188.026 35.8619 187.981 35.9077 187.915 35.952L186.805 34.2879C186.391 34.5643 186.232 35.0216 186.158 35.2773L188.082 35.8267ZM187.807 36.0144C187.678 36.0793 187.569 36.0902 187.522 36.0921C187.473 36.0942 187.45 36.0883 187.464 36.0909C187.475 36.0931 187.505 36.0997 187.555 36.116C187.604 36.1321 187.667 36.1551 187.743 36.1871L188.513 34.3409C188.289 34.2479 188.057 34.1673 187.832 34.1251C187.644 34.0898 187.277 34.0436 186.913 34.2256L187.807 36.0144ZM187.757 36.1925C188.112 36.3348 188.654 36.5199 189.361 36.7449L189.967 34.8391C189.266 34.6161 188.784 34.4492 188.499 34.3355L187.757 36.1925ZM189.373 36.7487C190.155 36.9866 190.967 37.1726 191.81 37.3074L192.126 35.3326C191.369 35.2114 190.645 35.0454 189.955 34.8353L189.373 36.7487ZM191.816 37.3084C192.677 37.4408 193.481 37.5251 194.227 37.559L194.317 35.561C193.655 35.5309 192.923 35.4552 192.12 35.3316L191.816 37.3084ZM194.227 37.559C195.022 37.5951 195.816 37.5225 196.606 37.3431L196.162 35.3929C195.544 35.5335 194.93 35.5889 194.317 35.561L194.227 37.559ZM196.571 37.3503C198.07 37.0648 199.308 36.4495 200.141 35.4087L198.579 34.1593C198.132 34.7185 197.386 35.1592 196.197 35.3857L196.571 37.3503ZM200.141 35.4087C200.936 34.4145 201.32 33.2285 201.32 31.904H199.32C199.32 32.8195 199.064 33.5535 198.579 34.1593L200.141 35.4087ZM201.32 31.904C201.32 30.5441 200.811 29.3207 199.866 28.262L198.374 29.594C199.029 30.3273 199.32 31.0879 199.32 31.904H201.32ZM199.877 28.2751C199.021 27.2811 198.044 26.4079 196.951 25.656L195.817 27.304C196.772 27.9601 197.619 28.7189 198.363 29.5809L199.877 28.2751ZM196.943 25.6509C195.567 24.723 194.239 23.8271 192.959 22.9632L191.841 24.6208C193.121 25.4849 194.449 26.381 195.825 27.3091L196.943 25.6509ZM192.973 22.9728C191.731 22.1033 190.728 21.2644 189.952 20.4584L188.512 21.8456C189.4 22.7676 190.509 23.6887 191.827 24.6112L192.973 22.9728ZM189.965 20.4715C189.188 19.6348 188.63 18.8244 188.267 18.0429L186.453 18.8851C186.922 19.8956 187.612 20.8772 188.499 21.8325L189.965 20.4715ZM188.279 18.0701C187.954 17.3123 187.784 16.4563 187.784 15.488H185.784C185.784 16.6957 185.998 17.8237 186.441 18.8579L188.279 18.0701ZM187.784 15.488C187.784 14.5102 188.027 13.5499 188.532 12.5959L186.764 11.6601C186.117 12.8821 185.784 14.1618 185.784 15.488H187.784ZM188.532 12.5959C189.048 11.6206 189.737 10.7574 190.607 10.0037L189.297 8.49231C188.247 9.40264 187.4 10.4594 186.764 11.6601L188.532 12.5959ZM190.621 9.99129C191.495 9.20453 192.448 8.6142 193.482 8.212L192.758 6.34799C191.488 6.84179 190.329 7.56346 189.283 8.5047L190.621 9.99129ZM193.474 8.21528C194.519 7.8197 195.786 7.608 197.296 7.608V5.608C195.606 5.608 194.089 5.8443 192.766 6.34471L193.474 8.21528ZM197.296 7.608C198.553 7.608 199.665 7.7154 200.64 7.92223L201.056 5.96577C199.919 5.72459 198.663 5.608 197.296 5.608V7.608ZM200.669 7.92787C201.702 8.11561 202.578 8.31633 203.304 8.528L203.864 6.608C203.054 6.37167 202.106 6.15638 201.027 5.96013L200.669 7.92787ZM203.17 8.47837C203.239 8.50952 203.291 8.53618 203.33 8.55794C203.37 8.5802 203.388 8.59332 203.392 8.596C203.398 8.6002 203.371 8.58169 203.334 8.53671C203.298 8.49263 203.228 8.39456 203.19 8.24253L205.13 7.75747C205.028 7.35022 204.739 7.10608 204.592 6.996C204.414 6.86248 204.205 6.75179 203.998 6.65763L203.17 8.47837ZM203.328 8.55471C203.277 8.47818 203.252 8.41068 203.24 8.36917C203.227 8.32756 203.225 8.30031 203.224 8.29454C203.223 8.28667 203.226 8.3178 203.216 8.40397L205.2 8.65203C205.222 8.4822 205.233 8.29733 205.216 8.11346C205.2 7.94012 205.153 7.68651 204.992 7.44529L203.328 8.55471ZM203.225 8.34371L202.649 11.4157L204.615 11.7843L205.191 8.71229L203.225 8.34371ZM202.683 11.2838C202.654 11.3718 202.628 11.4228 202.612 11.4479C202.597 11.4722 202.598 11.4633 202.623 11.4431L203.873 13.0049C204.239 12.7116 204.451 12.3043 204.581 11.9162L202.683 11.2838ZM202.541 11.5169C202.731 11.3272 202.934 11.32 202.96 11.32C202.977 11.32 202.972 11.3218 202.94 11.3154C202.909 11.3092 202.862 11.2972 202.796 11.2753L202.164 13.1727C202.406 13.2533 202.681 13.32 202.96 13.32C203.242 13.32 203.637 13.2488 203.955 12.9311L202.541 11.5169ZM202.676 11.2434C202.213 11.1508 201.732 11.0423 201.235 10.9179L200.749 12.8581C201.276 12.9897 201.787 13.1052 202.284 13.2046L202.676 11.2434ZM201.29 10.9335C200.736 10.7604 200.167 10.6224 199.582 10.5192L199.234 12.4888C199.737 12.5776 200.224 12.6956 200.694 12.8425L201.29 10.9335ZM199.592 10.5211C199.045 10.4184 198.509 10.3491 197.987 10.3142L197.853 12.3098C198.291 12.3389 198.747 12.3976 199.224 12.4869L199.592 10.5211ZM197.987 10.3142C197.464 10.2794 196.954 10.279 196.457 10.3145L196.599 12.3095C196.998 12.281 197.416 12.2806 197.853 12.3098L197.987 10.3142ZM196.396 10.3208C194.802 10.5332 193.469 11.1004 192.528 12.1229L194 13.4771C194.531 12.8995 195.374 12.4748 196.66 12.3032L196.396 10.3208ZM192.513 12.1394C191.63 13.1426 191.208 14.3778 191.208 15.776H193.208C193.208 14.8062 193.49 14.0574 194.015 13.4606L192.513 12.1394ZM191.208 15.776C191.208 16.8368 191.653 17.8347 192.387 18.7527L193.949 17.5033C193.403 16.8213 193.208 16.2512 193.208 15.776H191.208ZM192.387 18.7527C193.127 19.6777 194.337 20.6589 195.933 21.7013L197.027 20.0267C195.487 19.0211 194.489 18.1783 193.949 17.5033L192.387 18.7527ZM195.929 21.6983C197.713 22.8773 199.187 23.8921 200.355 24.7438L201.533 23.1282C200.333 22.2519 198.831 21.2187 197.031 20.0297L195.929 21.6983ZM200.355 24.7438C201.498 25.5779 202.399 26.3786 203.075 27.1426L204.573 25.8174C203.777 24.9174 202.758 24.0221 201.533 23.1282L200.355 24.7438ZM203.088 27.1571C203.748 27.874 204.154 28.5634 204.356 29.2221L206.268 28.6339C205.958 27.6286 205.372 26.686 204.56 25.8029L203.088 27.1571ZM204.371 29.2667C204.615 29.945 204.744 30.7087 204.744 31.568H206.744C206.744 30.5073 206.585 29.511 206.253 28.5893L204.371 29.2667ZM204.744 31.568C204.744 33.8906 203.925 35.8419 202.259 37.4788L203.661 38.9052C205.707 36.8941 206.744 34.4294 206.744 31.568H204.744ZM224.608 12.128V11.128H223.608V12.128H224.608ZM219.184 12.128H220.184V11.128H219.184V12.128ZM211.216 11.984L210.416 12.584L210.502 12.6983L210.616 12.784L211.216 11.984ZM211.216 7.28L210.509 6.57289L210.509 6.57289L211.216 7.28ZM232.576 7.28L231.776 7.88L231.862 7.99428L231.976 8.07999L232.576 7.28ZM223.608 12.128V39.824H225.608V12.128H223.608ZM223.608 39.824C223.608 39.8619 223.599 39.7066 223.757 39.5489C223.915 39.3912 224.07 39.4 224.032 39.4V41.4C224.378 41.4 224.821 41.3128 225.171 40.9631C225.521 40.6134 225.608 40.1701 225.608 39.824H223.608ZM224.032 39.4H219.76V41.4H224.032V39.4ZM219.76 39.4C219.722 39.4 219.877 39.3912 220.035 39.5489C220.193 39.7066 220.184 39.8619 220.184 39.824H218.184C218.184 40.1701 218.271 40.6134 218.621 40.9631C218.971 41.3128 219.414 41.4 219.76 41.4V39.4ZM220.184 39.824V12.128H218.184V39.824H220.184ZM219.184 11.128H211.648V13.128H219.184V11.128ZM211.648 11.128C211.67 11.128 211.701 11.1315 211.736 11.1433C211.772 11.1551 211.799 11.171 211.816 11.184L210.616 12.784C210.917 13.0098 211.272 13.128 211.648 13.128V11.128ZM212.016 11.384C212.042 11.4182 212.058 11.453 212.066 11.4807C212.074 11.5066 212.072 11.5169 212.072 11.504H210.072C210.072 11.8679 210.166 12.2504 210.416 12.584L212.016 11.384ZM212.072 11.504V7.664H210.072V11.504H212.072ZM212.072 7.664C212.072 7.68386 212.069 7.73349 212.044 7.79912C212.019 7.86783 211.977 7.93344 211.923 7.9871L210.509 6.57289C210.192 6.88963 210.072 7.28974 210.072 7.664H212.072ZM211.923 7.9871C211.913 7.99714 211.882 8.02513 211.826 8.04981C211.768 8.07553 211.706 8.088 211.648 8.088V6.088C211.187 6.088 210.798 6.2842 210.509 6.57289L211.923 7.9871ZM211.648 8.088H232.192V6.088H211.648V8.088ZM232.192 8.088C232.135 8.088 232.051 8.07569 231.961 8.03043C231.87 7.98516 231.81 7.92538 231.776 7.88L233.376 6.68C233.091 6.30019 232.667 6.088 232.192 6.088V8.088ZM231.976 8.07999C231.931 8.04596 231.871 7.98573 231.826 7.89521C231.78 7.80469 231.768 7.72072 231.768 7.664H233.768C233.768 7.18924 233.556 6.76486 233.176 6.48L231.976 8.07999ZM231.768 7.664V11.504H233.768V7.664H231.768ZM231.768 11.504C231.768 11.5768 231.75 11.445 231.889 11.2937C232.043 11.1273 232.208 11.128 232.192 11.128V13.128C232.56 13.128 233.013 13.0247 233.359 12.6503C233.69 12.291 233.768 11.8472 233.768 11.504H231.768ZM232.192 11.128H224.608V13.128H232.192V11.128ZM240.304 36.272L239.408 36.7157L240.304 36.272ZM238.192 19.04L237.199 18.9248L237.197 18.9376L238.192 19.04ZM239.68 12.944L238.754 12.5672L238.75 12.5754L239.68 12.944ZM242.752 8.336L242.082 7.59355L242.073 7.6019L242.752 8.336ZM251.488 7.424L251.009 8.30189L251.02 8.30756L251.03 8.31297L251.488 7.424ZM254.176 9.68L253.382 10.2884L253.387 10.295L253.393 10.3014L254.176 9.68ZM255.952 12.944L255.011 13.2819L255.015 13.2925L255.019 13.303L255.952 12.944ZM257.68 21.2L256.682 21.2665L257.68 21.2ZM257.2 30.368L256.215 30.1927L257.2 30.368ZM255.328 36.272L254.441 35.8106L254.437 35.8177L254.434 35.8248L255.328 36.272ZM252.304 39.92L251.739 39.0947L251.732 39.0997L251.725 39.1048L252.304 39.92ZM245.728 12.464L246.348 13.2489L246.353 13.2449L245.728 12.464ZM244.144 14.816L245.065 15.2066L245.069 15.1967L244.144 14.816ZM243.088 18.992L242.099 18.8454L242.097 18.8544L242.096 18.8634L243.088 18.992ZM243.088 28.832L242.096 28.9606L242.097 28.9696L242.099 28.9785L243.088 28.832ZM244.144 33.056L243.219 33.4368L243.223 33.4465L244.144 33.056ZM245.728 35.408L245.084 36.1729L245.105 36.1911L245.128 36.208L245.728 35.408ZM249.856 35.408L250.476 36.1929L250.481 36.1889L249.856 35.408ZM251.488 33.056L252.409 33.4466L252.413 33.4367L251.488 33.056ZM252.496 28.832L251.507 28.6854L251.505 28.6944L251.504 28.7034L252.496 28.832ZM252.496 18.992L251.504 19.1206L251.505 19.1296L251.507 19.1385L252.496 18.992ZM251.488 14.816L250.563 15.1968L250.567 15.2065L251.488 14.816ZM249.856 12.464L249.212 13.2289L249.233 13.2471L249.256 13.264L249.856 12.464ZM247.888 40.216C246.343 40.216 245.051 39.8466 243.97 39.1423C242.886 38.4353 241.954 37.351 241.2 35.8283L239.408 36.7157C240.286 38.489 241.434 39.8767 242.878 40.8177C244.325 41.7614 246.009 42.216 247.888 42.216V40.216ZM241.2 35.8283C239.656 32.7097 238.856 28.7451 238.856 23.888H236.856C236.856 28.9509 237.688 33.2423 239.408 36.7157L241.2 35.8283ZM238.856 23.888C238.856 22.8859 238.963 21.3123 239.187 19.1424L237.197 18.9376C236.973 21.1197 236.856 22.7781 236.856 23.888H238.856ZM239.185 19.1552C239.432 17.0244 239.909 15.0787 240.61 13.3126L238.75 12.5754C237.979 14.5213 237.464 16.6396 237.199 18.9248L239.185 19.1552ZM240.606 13.3208C241.328 11.5458 242.275 10.1391 243.431 9.0701L242.073 7.6019C240.669 8.90089 239.568 10.5662 238.754 12.5672L240.606 13.3208ZM243.422 9.07839C244.516 8.09144 245.973 7.56 247.888 7.56V5.56C245.579 5.56 243.612 6.21255 242.082 7.59361L243.422 9.07839ZM247.888 7.56C249.085 7.56 250.117 7.81507 251.009 8.30189L251.967 6.5461C250.747 5.88093 249.379 5.56 247.888 5.56V7.56ZM251.03 8.31297C251.952 8.78811 252.735 9.44335 253.382 10.2884L254.97 9.07157C254.146 7.99665 253.136 7.14789 251.946 6.53502L251.03 8.31297ZM253.393 10.3014C254.053 11.1346 254.595 12.1242 255.011 13.2819L256.893 12.6061C256.413 11.2678 255.771 10.0814 254.959 9.0586L253.393 10.3014ZM255.019 13.303C255.477 14.4958 255.847 15.7705 256.124 17.1284L258.084 16.7276C257.785 15.2695 257.387 13.8882 256.885 12.585L255.019 13.303ZM256.124 17.1284C256.403 18.492 256.589 19.8713 256.682 21.2665L258.678 21.1335C258.579 19.6487 258.381 18.18 258.084 16.7276L256.124 17.1284ZM256.682 21.2665C256.779 22.7195 256.824 23.577 256.824 23.888H258.824C258.824 23.495 258.773 22.5605 258.678 21.1335L256.682 21.2665ZM256.824 23.888C256.824 25.8031 256.623 27.9037 256.215 30.1927L258.185 30.5433C258.609 28.1603 258.824 25.9409 258.824 23.888H256.824ZM256.215 30.1927C255.812 32.4585 255.214 34.3237 254.441 35.8106L256.215 36.7334C257.106 35.0203 257.756 32.9495 258.185 30.5433L256.215 30.1927ZM254.434 35.8248C253.693 37.3051 252.788 38.3772 251.739 39.0947L252.869 40.7453C254.252 39.7988 255.363 38.4389 256.222 36.7192L254.434 35.8248ZM251.725 39.1048C250.704 39.8303 249.442 40.216 247.888 40.216V42.216C249.79 42.216 251.472 41.7377 252.883 40.7352L251.725 39.1048ZM247.84 10.696C246.829 10.696 245.908 11.0395 245.103 11.6831L246.353 13.2449C246.828 12.8645 247.315 12.696 247.84 12.696V10.696ZM245.108 11.6791C244.313 12.3067 243.701 13.2643 243.219 14.4353L245.069 15.1967C245.483 14.1917 245.927 13.5813 246.348 13.2489L245.108 11.6791ZM243.223 14.4254C242.73 15.5889 242.361 17.0724 242.099 18.8454L244.077 19.1385C244.327 17.4556 244.662 16.1551 245.065 15.2065L243.223 14.4254ZM242.096 18.8634C241.867 20.6285 241.752 22.3038 241.752 23.888H243.752C243.752 22.4002 243.861 20.8115 244.08 19.1206L242.096 18.8634ZM241.752 23.888C241.752 25.5034 241.867 27.1946 242.096 28.9606L244.08 28.7034C243.861 27.0134 243.752 25.4086 243.752 23.888H241.752ZM242.099 28.9785C242.362 30.7521 242.729 32.2468 243.219 33.4367L245.069 32.6753C244.663 31.6892 244.326 30.3679 244.077 28.6855L242.099 28.9785ZM243.223 33.4465C243.708 34.5877 244.314 35.5248 245.084 36.1729L246.372 34.6431C245.926 34.2672 245.476 33.6363 245.065 32.6655L243.223 33.4465ZM245.128 36.208C245.933 36.812 246.846 37.128 247.84 37.128V35.128C247.298 35.128 246.803 34.964 246.328 34.608L245.128 36.208ZM247.84 37.128C248.813 37.128 249.701 36.8044 250.476 36.1929L249.236 34.6231C248.795 34.9716 248.339 35.128 247.84 35.128V37.128ZM250.481 36.1889C251.292 35.5402 251.92 34.5975 252.409 33.4465L250.567 32.6655C250.16 33.6265 249.7 34.2518 249.231 34.6271L250.481 36.1889ZM252.413 33.4367C252.906 32.2393 253.257 30.7379 253.488 28.9606L251.504 28.7034C251.287 30.3821 250.966 31.6967 250.563 32.6753L252.413 33.4367ZM253.485 28.9785C253.748 27.2074 253.88 25.5102 253.88 23.888H251.88C251.88 25.4018 251.756 27.0006 251.507 28.6854L253.485 28.9785ZM253.88 23.888C253.88 22.2968 253.747 20.6155 253.485 18.8454L251.507 19.1385C251.757 20.8245 251.88 22.4072 251.88 23.888H253.88ZM253.488 18.8634C253.257 17.0868 252.905 15.5965 252.409 14.4254L250.567 15.2065C250.967 16.1475 251.287 17.4412 251.504 19.1206L253.488 18.8634ZM252.413 14.4353C251.926 13.2541 251.292 12.2913 250.456 11.664L249.256 13.264C249.7 13.5967 250.154 14.2019 250.563 15.1967L252.413 14.4353ZM250.5 11.6991C249.727 11.0483 248.831 10.696 247.84 10.696V12.696C248.321 12.696 248.769 12.8557 249.212 13.2289L250.5 11.6991ZM279.856 40.352L279.613 41.3221L279.856 40.352ZM279.424 39.968L278.539 40.4339L278.571 40.494L278.61 40.5492L279.424 39.968ZM272.752 27.296L273.637 26.8301L273.356 26.296H272.752V27.296ZM269.728 27.296V26.296H268.728V27.296H269.728ZM264.592 7.232L263.992 6.432L263.935 6.47464L263.885 6.52489L264.592 7.232ZM280.288 9.92L279.581 10.6271L279.587 10.6331L280.288 9.92ZM281.632 22.688L280.787 22.1534L280.784 22.158L281.632 22.688ZM277.696 26.144L277.277 25.236L276.302 25.686L276.82 26.6265L277.696 26.144ZM285.232 39.824L284.356 40.3065L284.377 40.3435L284.4 40.3787L285.232 39.824ZM269.728 12.128V11.128H268.728V12.128H269.728ZM269.728 22.304H268.728V23.304H269.728V22.304ZM276.256 21.056L276.899 21.8222L276.906 21.8162L276.913 21.8101L276.256 21.056ZM276.352 13.328L275.699 14.0854L276.352 13.328ZM280.576 39.4C280.413 39.4 280.289 39.3962 280.199 39.3902C280.098 39.3835 280.076 39.3762 280.099 39.3819L279.613 41.3221C279.877 41.388 280.234 41.4 280.576 41.4V39.4ZM280.099 39.3819C280.176 39.4011 280.231 39.4287 280.264 39.4481C280.297 39.4673 280.314 39.4825 280.316 39.4846C280.319 39.487 280.313 39.4817 280.298 39.4644C280.283 39.4474 280.263 39.4222 280.238 39.3868L278.61 40.5492C278.784 40.792 279.109 41.196 279.613 41.3221L280.099 39.3819ZM280.309 39.5021L273.637 26.8301L271.867 27.7619L278.539 40.4339L280.309 39.5021ZM272.752 26.296H269.728V28.296H272.752V26.296ZM268.728 27.296V39.872H270.728V27.296H268.728ZM268.728 39.872C268.728 39.8637 268.729 39.8116 268.759 39.7365C268.791 39.6553 268.847 39.5718 268.926 39.5046C269.077 39.3773 269.195 39.4 269.104 39.4V41.4C269.429 41.4 269.859 41.3347 270.218 41.0314C270.608 40.701 270.728 40.25 270.728 39.872H268.728ZM269.104 39.4H265.024V41.4H269.104V39.4ZM265.024 39.4C264.966 39.4 265.108 39.3848 265.268 39.5308C265.444 39.692 265.448 39.8704 265.448 39.872H263.448C263.448 40.2256 263.548 40.668 263.916 41.0052C264.268 41.3272 264.698 41.4 265.024 41.4V39.4ZM265.448 39.872V7.616H263.448V39.872H265.448ZM265.448 7.616C265.448 7.63586 265.445 7.68549 265.42 7.75112C265.395 7.81983 265.353 7.88544 265.299 7.9391L263.885 6.52489C263.568 6.84163 263.448 7.24174 263.448 7.616H265.448ZM265.192 8.032C265.175 8.04498 265.148 8.06089 265.112 8.07268C265.077 8.08447 265.046 8.088 265.024 8.088V6.088C264.648 6.088 264.293 6.20618 263.992 6.432L265.192 8.032ZM265.024 8.088H272.176V6.088H265.024V8.088ZM272.176 8.088C275.518 8.088 277.934 8.98061 279.581 10.6271L280.995 9.21289C278.866 7.08338 275.874 6.088 272.176 6.088V8.088ZM279.587 10.6331C281.261 12.2792 282.12 14.4112 282.12 17.12H284.12C284.12 13.9408 283.091 11.2728 280.989 9.20687L279.587 10.6331ZM282.12 17.12C282.12 19.1048 281.663 20.769 280.787 22.1534L282.477 23.2226C283.585 21.471 284.12 19.4232 284.12 17.12H282.12ZM280.784 22.158C279.928 23.5269 278.766 24.5486 277.277 25.236L278.115 27.052C279.954 26.2034 281.416 24.9211 282.48 23.218L280.784 22.158ZM276.82 26.6265L284.356 40.3065L286.108 39.3415L278.572 25.6615L276.82 26.6265ZM284.4 40.3787C284.424 40.4151 284.372 40.3531 284.353 40.2136C284.342 40.1349 284.341 40.0259 284.376 39.9024C284.412 39.7756 284.476 39.666 284.555 39.5803C284.63 39.4984 284.705 39.4517 284.754 39.4271C284.801 39.4028 284.835 39.3943 284.841 39.3927C284.85 39.3906 284.812 39.4 284.704 39.4V41.4C284.9 41.4 285.112 41.3854 285.317 41.3353C285.509 41.2882 285.797 41.1852 286.029 40.9317C286.3 40.6366 286.379 40.2669 286.333 39.9384C286.294 39.6549 286.168 39.4249 286.064 39.2693L284.4 40.3787ZM284.704 39.4H280.576V41.4H284.704V39.4ZM268.728 12.128V22.304H270.728V12.128H268.728ZM269.728 23.304H272.08V21.304H269.728V23.304ZM272.08 23.304C274.017 23.304 275.668 22.8543 276.899 21.8222L275.613 20.2898C274.86 20.9217 273.727 21.304 272.08 21.304V23.304ZM276.913 21.8101C278.186 20.7009 278.744 19.0889 278.744 17.168H276.744C276.744 18.7031 276.31 19.6831 275.599 20.3019L276.913 21.8101ZM278.744 17.168C278.744 15.2478 278.236 13.6319 277.005 12.5706L275.699 14.0854C276.324 14.6241 276.744 15.5682 276.744 17.168H278.744ZM277.005 12.5706C275.857 11.5807 274.391 11.128 272.704 11.128V13.128C274.025 13.128 274.991 13.4753 275.699 14.0854L277.005 12.5706ZM272.704 11.128H269.728V13.128H272.704V11.128ZM291.136 40.208L291.843 39.5009L291.793 39.4506L291.736 39.408L291.136 40.208ZM291.088 7.28L290.381 6.57289V6.57289L291.088 7.28ZM308.32 7.28L307.426 7.72721L307.453 7.78289L307.488 7.8347L308.32 7.28ZM308.272 11.984L308.979 12.6911L309.029 12.6409L309.072 12.584L308.272 11.984ZM296.224 12.128V11.128H295.224V12.128H296.224ZM296.224 20.816H295.224V21.816H296.224V20.816ZM296.224 25.856V24.856H295.224V25.856H296.224ZM296.224 35.36H295.224V36.36H296.224V35.36ZM292.288 39.4C291.993 39.4 291.799 39.3847 291.684 39.3656C291.628 39.3562 291.615 39.3497 291.631 39.3557C291.639 39.3586 291.736 39.3938 291.843 39.5009L290.429 40.9151C290.734 41.2206 291.148 41.3038 291.356 41.3384C291.625 41.3833 291.943 41.4 292.288 41.4V39.4ZM291.736 39.408C291.836 39.4829 291.896 39.5619 291.929 39.6121C291.962 39.6628 291.978 39.7022 291.985 39.718C291.995 39.7461 291.989 39.7406 291.979 39.678C291.96 39.5547 291.944 39.3396 291.944 39.008H289.944C289.944 39.3804 289.96 39.7173 290.005 39.994C290.027 40.1314 290.061 40.2879 290.119 40.44C290.171 40.5732 290.285 40.8199 290.536 41.008L291.736 39.408ZM291.944 39.008V8.384H289.944V39.008H291.944ZM291.944 8.384C291.944 8.08111 291.956 7.87862 291.972 7.75734C291.98 7.69571 291.985 7.68235 291.98 7.6994C291.977 7.70912 291.967 7.74077 291.944 7.78462C291.923 7.82609 291.878 7.90438 291.795 7.9871L290.381 6.57289C290.184 6.76981 290.104 6.99802 290.07 7.1066C290.029 7.23965 290.004 7.37629 289.988 7.49866C289.956 7.74538 289.944 8.04689 289.944 8.384H291.944ZM291.795 7.9871C291.694 8.08847 291.602 8.1239 291.59 8.12857C291.572 8.13568 291.58 8.13008 291.631 8.12121C291.735 8.10321 291.915 8.088 292.192 8.088V6.088C291.861 6.088 291.553 6.10478 291.289 6.15079C291.078 6.18738 290.68 6.27388 290.381 6.57289L291.795 7.9871ZM292.192 8.088H307.696V6.088H292.192V8.088ZM307.696 8.088C307.826 8.088 307.853 8.10149 307.822 8.09178C307.799 8.08483 307.567 8.01008 307.426 7.72721L309.214 6.83279C309.009 6.42192 308.641 6.25116 308.41 6.18022C308.171 6.1065 307.918 6.088 307.696 6.088V8.088ZM307.488 7.8347C307.464 7.79909 307.448 7.76759 307.436 7.74338C307.425 7.71909 307.418 7.69943 307.413 7.68623C307.405 7.66113 307.404 7.65032 307.406 7.6604C307.407 7.66949 307.41 7.69002 307.412 7.72452C307.414 7.75857 307.416 7.80202 307.416 7.856H309.416C309.416 7.6804 309.407 7.50101 309.378 7.3316C309.353 7.17917 309.299 6.94525 309.152 6.7253L307.488 7.8347ZM307.416 7.856V11.312H309.416V7.856H307.416ZM307.416 11.312C307.416 11.3675 307.414 11.4118 307.411 11.4461C307.408 11.4807 307.404 11.5013 307.402 11.5105C307.4 11.52 307.401 11.5118 307.409 11.4914C307.418 11.4709 307.436 11.4315 307.472 11.384L309.072 12.584C309.375 12.1794 309.416 11.6674 309.416 11.312H307.416ZM307.565 11.2769C307.63 11.2123 307.692 11.174 307.735 11.1526C307.777 11.1315 307.806 11.1237 307.813 11.1219C307.824 11.1193 307.792 11.128 307.696 11.128V13.128C307.888 13.128 308.096 13.1127 308.299 13.0621C308.495 13.0131 308.757 12.913 308.979 12.6911L307.565 11.2769ZM307.696 11.128H296.224V13.128H307.696V11.128ZM295.224 12.128V20.816H297.224V12.128H295.224ZM296.224 21.816H307.072V19.816H296.224V21.816ZM307.072 21.816C307.106 21.816 307.093 21.8208 307.052 21.8062C307.005 21.7896 306.941 21.7544 306.882 21.6919C306.763 21.5648 306.792 21.4667 306.792 21.584H308.792C308.792 21.1893 308.701 20.7072 308.342 20.3241C307.971 19.9287 307.483 19.816 307.072 19.816V21.816ZM306.792 21.584V25.04H308.792V21.584H306.792ZM306.792 25.04C306.792 25.1865 306.757 25.1096 306.862 24.9904C306.917 24.9287 306.981 24.8895 307.034 24.8695C307.081 24.8518 307.1 24.856 307.072 24.856V26.856C307.501 26.856 307.996 26.7287 308.362 26.3136C308.707 25.9224 308.792 25.4375 308.792 25.04H306.792ZM307.072 24.856H296.224V26.856H307.072V24.856ZM295.224 25.856V35.36H297.224V25.856H295.224ZM296.224 36.36H308.272V34.36H296.224V36.36ZM308.272 36.36C308.285 36.36 308.251 36.3621 308.191 36.3379C308.125 36.3113 308.057 36.2641 308.004 36.1997C307.954 36.1394 307.94 36.0908 307.938 36.0837C307.936 36.079 307.944 36.1054 307.944 36.176H309.944C309.944 35.792 309.869 35.318 309.548 34.9283C309.196 34.5014 308.707 34.36 308.272 34.36V36.36ZM307.944 36.176V39.632H309.944V36.176H307.944ZM307.944 39.632C307.944 39.7642 307.912 39.6766 308.023 39.5495C308.081 39.4834 308.15 39.4403 308.21 39.4175C308.264 39.397 308.291 39.4 308.272 39.4V41.4C308.687 41.4 309.171 41.2751 309.529 40.8665C309.864 40.4834 309.944 40.0118 309.944 39.632H307.944ZM308.272 39.4H292.288V41.4H308.272V39.4Z" fill="white"/>
</svg>
