<svg width="32" height="32" viewBox="0 0 32 32" fill="none" xmlns="http://www.w3.org/2000/svg">
<g clip-path="url(#clip0_825_4766)">
<path d="M24.1244 30.2222H7.8755C7.53345 30.2141 7.19634 30.1388 6.88344 30.0004C6.57054 29.862 6.28797 29.6633 6.05188 29.4156C5.8158 29.168 5.63082 28.8762 5.50752 28.5571C5.38422 28.2379 5.32501 27.8976 5.33328 27.5556V9.98222H7.11106V27.5556C7.10257 27.6642 7.11564 27.7734 7.14952 27.877C7.18339 27.9805 7.23741 28.0763 7.30845 28.159C7.37949 28.2416 7.46616 28.3093 7.56348 28.3583C7.66079 28.4073 7.76683 28.4366 7.8755 28.4444H24.1244C24.2331 28.4366 24.3391 28.4073 24.4364 28.3583C24.5337 28.3093 24.6204 28.2416 24.6914 28.159C24.7625 28.0763 24.8165 27.9805 24.8504 27.877C24.8843 27.7734 24.8973 27.6642 24.8888 27.5556V9.98222H26.6666V27.5556C26.6749 27.8976 26.6157 28.2379 26.4924 28.5571C26.3691 28.8762 26.1841 29.168 25.948 29.4156C25.7119 29.6633 25.4294 29.862 25.1165 30.0004C24.8036 30.1388 24.4664 30.2141 24.1244 30.2222Z" fill="#464646"/>
<path d="M27.3601 8.00001H4.44455C4.2088 8.00001 3.98271 7.90636 3.81601 7.73966C3.64931 7.57296 3.55566 7.34687 3.55566 7.11112C3.55566 6.87537 3.64931 6.64928 3.81601 6.48258C3.98271 6.31588 4.2088 6.22223 4.44455 6.22223H27.3601C27.5959 6.22223 27.8219 6.31588 27.9886 6.48258C28.1553 6.64928 28.249 6.87537 28.249 7.11112C28.249 7.34687 28.1553 7.57296 27.9886 7.73966C27.8219 7.90636 27.5959 8.00001 27.3601 8.00001Z" fill="#464646"/>
<path d="M18.6667 11.5556H20.4445V24.8889H18.6667V11.5556Z" fill="#464646"/>
<path d="M11.5557 11.5556H13.3334V24.8889H11.5557V11.5556Z" fill="#464646"/>
<path d="M20.4446 5.20888H18.7557V3.55555H13.2446V5.20888H11.5557V3.55555C11.5551 3.09906 11.7301 2.65984 12.0446 2.32888C12.359 1.99793 12.7886 1.8006 13.2446 1.77777H18.7557C19.2116 1.8006 19.6413 1.99793 19.9557 2.32888C20.2701 2.65984 20.4451 3.09906 20.4446 3.55555V5.20888Z" fill="#464646"/>
</g>
<defs>
<clipPath id="clip0_825_4766">
<rect width="32" height="32" fill="white"/>
</clipPath>
</defs>
</svg>
